<mxfile host="Electron" modified="2025-05-20T13:48:02.949Z" agent="Mozilla/5.0 (X11; Linux x86_64) AppleWebKit/537.36 (KHTML, like Gecko) draw.io/22.1.2 Chrome/114.0.5735.289 Electron/25.9.4 Safari/537.36" etag="nXtZLs8mXkuvzQYrD0ac" version="22.1.2" type="device">
  <diagram name="Page-1" id="7HEg4hhvJs8CE3GZGd3Z">
    <mxGraphModel dx="2574" dy="1973" grid="0" gridSize="10" guides="1" tooltips="1" connect="1" arrows="1" fold="1" page="1" pageScale="1" pageWidth="827" pageHeight="1169" math="1" shadow="0">
      <root>
        <mxCell id="0" />
        <mxCell id="1" parent="0" />
        <mxCell id="neJJ6CxrI0hjP-hsaY2k-1" value="" style="shape=image;aspect=fixed;image=data:image/png,iVBORw0KGgoAAAANSUhEUgAAB4AAAAQ4CAYAAADo08FDAADlU0lEQVR4nOz9e5hfB37XeX7O75xfXVWqKpVUF/luy253J93p7twJhEsIA0xYCIQsIcstF2CAZGeBWSAZnn3mmWGffXb2woRJJssAs8vM7MzOkMDAABnIjYQQQoBM62ZbsizLsmXd5VKpbr9zfr+zf8hW292S2m5LPqXS6/W0HutSqrzrefSHlY+/5xRt27YBAAAAAAAA4IHX6zoAAAAAAAAAgHvDAAwAAAAAAACwSxiAAQAAAAAAAHYJAzAAAAAAAADALmEABgAAAAAAANglDMAAAAAAAAAAu4QBGAAAAAAAAGCXMAADAAAAAAAA7BIGYAAAAAAAAIBdwgAMAAAAAAAAsEsYgAEAAAAAAAB2CQMwAAAAAAAAwC5hAAYAAAAAAADYJQzAAAAAAAAAALuEARgAAAAAAABglzAAAwAAAAAAAOwSBmAAAAAAAACAXcIADAAAAAAAALBLGIABAAAAAAAAdgkDMAAAAAAAAMAuYQAGAAAAAAAA2CUMwAAAAAAAAAC7hAEYAAAAAAAAYJcwAAMAAAAAAADsEgZgAAAAAAAAgF3CAAwAAAAAAACwSxiAAQAAAAAAAHYJAzAAAAAAAADALmEABgAAAAAAANglDMAAAAAAAAAAu4QBGAAAAAAAAGCXMAADAAAAAAAA7BIGYAAAAAAAAIBdwgAMAAAAAAAAsEsYgAEAAAAAAAB2CQMwAAAAAAAAwC5hAAYAAAAAAADYJQzAAAAAAAAAALuEARgAAAAAAABglzAAAwAAAAAAAOwSBmAAAAAAAACAXcIADAAAAAAAALBLGIABAAAAAAAAdgkDMAAAAAAAAMAuYQAGAAAAAAAA2CUMwAAAAAAAAAC7hAEYAAAAAAAAYJcwAAMAAAAAAADsEgZgAAAAAAAAgF3CAAwAAAAAAACwSxiAAQAAAAAAAHYJAzAAAAAAAADALmEABgAAAAAAANglDMAAAAAAAAAAu4QBGAAAAAAAAGCXMAADAAAAAAAA7BIGYAAAAAAAAIBdwgAMAAAAAAAAsEsYgAEAAAAAAAB2CQMwAAAAAAAAwC5hAAYAAAAAAADYJQzAAAAAAAAAALuEARgAAAAAAABglzAAAwAAAAAAAOwSBmAAAAAAAACAXcIADAAAAAAAALBLGIABAAAAAAAAdgkDMAAAAAAAAMAuYQAGAAAAAAAA2CUMwAAAAAAAAAC7hAEYAAAAAAAAYJcwAAMAAAAAAADsEgZgAAAAAAAAgF3CAAwAAAAAAACwSxiAAQAAAAAAAHYJAzAAAAAAAADALmEABgAAAAAAANglDMAAAAAAAAAAu4QBGAAAAAAAAGCXMAADAAAAAAAA7BIGYAAAAAAAAIBdwgAMAAAAAAAAsEsYgAEAAAAAAAB2CQMwAAAAAAAAwC5hAAYAAAAAAADYJQzAAAAAAAAAALuEARgAAAAAAABglzAAAwAAAAAAAOwSBmAAAAAAAACAXcIADAAAAAAAALBLGIABAAAAAAAAdgkDMAAAAAAAAMAuYQAGAAAAAAAA2CUMwAAAAAAAAAC7hAEYAAAAAAAAYJcwAAMAAAAAAADsEgZgAAAAAAAAgF2i6joAAAB4r62trfyp/+I7M9abyB/9+j+bycnJTExMZHx8PBMTExkbG7v147Isu84FAAAAYAcxAAMAwA4zMTGR8T1VTv6rV/N3b/wPWZp8NEVRJEmKosjY2FjKsrw1BO/duzfT09PZu3fvrZF4fHz8Pd8fGxvr+KsCAAAA4KNgAAYAgB3okUOP5M2Tl/PS2r/Jr/uq35Ay/SRJ27ap6/rWt+3t7Zw7dy51XadpmrRtm9FolNFolH6/n36/n7GxsfT7/UxNTWVmZiYzMzOZmpq6NRC/MxL3+/1MTk6mqvw1AQAAAOBBVbRt23YdAQAAvNfl9Tfzw//1n8qrn3sz+x/bm+/61A9+4M/RNM2tYfidwXgwGNz6uaIo0uv10rbtrZG43+9nYmIie/bsyZ49ezIzM/NFI/G7H0cNAAAAwM5iAAYAgB3qh//R9+Toz72cXtXLzN7JfOcn//R9+b/zhVfFtxuK3/m4qqrS7/dTVVXGx8dvXRXPzs7eGoq/cCSenJy89TkAAAAAuL8MwAAAsEP9J7/4J3Pm6Jt57fD5LDw+l/FqIr/v49/fadPtronf/fjpoigyGo3S6/VujcX9fj/T09O3roqnpqbec1X87n/2+/1Ovz4AAACAB52XewEAwA5VpJf9j83nwstXs7W2nd5MLz97+ifzW576vZ01VVWVqqoyOTl5148bjUbvGYmvX7+eq1ev3vWqeGxs7D1Xxe9+/PQXjsXj4+OuigEAAABuwwAMAAA71L7JAxmNzmfxqfmcPX4hE3vGcvHGm3nx8r/N8/s/23XeXfV6vVtD7d288/jp4XB4azBeX1/PuXPnbl0Vj0ajLxqK+/1+pqamMj09nb1792Z6evo9V8TvDMWTk5OpKn/tAQAAAB4eHgENAAA71MX1N/L/+jf/cdbf2sjxf3Y61WSVyemx9Ipefvuh78rsxL6uEz9SX3hVfLt3Ffd6vbRte2skfmcwfuei+J2r4i98T7GrYgAAAGC38J/CAwDADrU4/UiKJFN7x7P/8dmcO3E5E1NjaTPKP375v88f+Mo/nofpX+k/6FXxO9+2t7eztraW4XB466r4nY9756q4qqr3PH56dnb21iOpv/AR1JOTk4ZiAAAAYMdyAQwAADvYX/mFP5m2bXP9ykZe+MXTGd8zlrHJKr2il16vl+/8ij/VdeIDrWma91wTD4fDW1fFbdumKIo0TZNer/eeq+Lp6ens2bMn09PTmZ6evu17it+5MgYAAAD4KD085wIAAPAAKooiozbZs28yC4/P5eKpKxmb3Js2yaht8/de/Jv5Pc9/b9eZD6yqqlJVVSYnJ+/6ce9+/PRwOMyNGzdy9erVW4+ffue/qy2K4j3vKn73VfE7j59+91j8zkjsqhgAAAC4V1wAAwDADvY3f+2v5M21sxmNRlm7spHjv3g603vHU0300yuKFEWR/VNL+Zanv6PrVPL5x08Ph8Pbvq+4bduUZZnRaJRer3drKC7L8tZV8d69ezM9PX3rmvjd7yuenJxMVfnveAEAAIA7MwADAMAO9tpbL+VvH/5/ph2NMkqbV/7NG7l4+q3MH5xJUSRFbo7Azx34ZD6z9M1d5/IBvPuq+N0jcV3XGY1Gty6C27a9NRK/c1X8zkXx1NTUF10Vv/PP8fFxV8UAAADwEPKfjgMAwA72+NzHbn6n10uGw+x/Yj6XX1tNvV1nbLyfpE1bFDlx6UgWJx/NI3uf7rSX96/X690aau/mnavid75tb29nbW0tw+HwPY+fbtv2PVfF7zx+enp6Onv37s3k5OStgfjdY/HExER6vd5H8SUDAAAAHwEDMAAA7HBv34Gm1+tlZmEy+x7ZmytnVzO20r/5Ae0obdHLP3/tH+d3P/9HM1FNd1jLvVYURcbGxjI2NvYlP7ZpmlvvJa7rOteuXcuFCxdS13Xatk1RFBkOh7c+Z7/fv/WI6T179mTPnj3veVfxu99T/M5gDAAAAOxsBmAAANjhil4v7XCUtKP0UuTAE3O58sb11INh+uM3/5W+aJO2SP7+i3873/mVfyKJi86HUVVV7+sdwaPR6NZIXNd1Njc3s7q6ems8fuequCiKVFX1nqviiYmJzMzMZHZ29tZQ/IUj8eTkpMdPAwAAQEe8AxgAAHa4v3n4/5I333r15ijXJsPRKCf/1dlcO7eWueWZFLl52Zm3B7eqV+U7PvEnOq5mN/jCx0+/857ipmkyGAxuXRW3bfueobiqqkxPT2fPnj2ZnZ299a7idx55vbi4mLIsu/7yAAAAYFcyAAMAwA53/MK/zk++9DeStBmN2iRFrp1fzUu/9Fr27p9O2S+SopciRd7+X2bH5/Pbn/2DHZfzMHn3RfEXfhuNRreG4vHx8Xzrt35rDh061HUyAAAA7EoGYAAAeAD8J7/476Vt27evgG/+86Vfei2rV9Yzv7gnyc1h+J0r4CLJU/PP5+se+ZYus+GLnD17NisrK/ldv+t3uQIGAACA+8CLwQAA4AFQtG2K5PPvVS2KLD09n1E9yrAZpW2LtLk5Dr/j9LUXc/qtF7oJhjtYXl7Oa6+9lrNnz3adAgAAALuSARgAAB4AVVm9/b325pFv22bv0p7MLe/JjasbadOmaIubh8A3fzltkn/1+s/mrc2LHVXDF+v3+ynLMkeOHIkHUgEAAMC9ZwAGAIAHwOzkvpvfaYukLdIrivR6vSw9tZB6MEw7HL3zSzfX3+Lzv/efnPofU4+2O+mG21leXs6ZM2fyxhtvdJ0CAAAAu44BGAAAHgC/7tF/J8nNV/y2RVKkSFEks0uTmV3ckxvXtpK2TfHOQeXbl5Xt29/+7gt/q5NuuJ3x8fGMRqMcO3bMFTAAAADcYwZgAAB4AHxq8Zturr+5+R7gUZIibaqqytJT82kGTdpR0r6zAL9zCfy2th3l77zw1z/6cLiD5eXlnDp1KhcuXOg6BQAAAHYVAzAAADwgeu8MwG3efsRzkTZF5lZmMrMwnfW3NlOkd+vX3vHODDwc1vmpl/+7jzYa7mBqaip1XeeFF17oOgUAAAB2FQMwAAA8IHq9t0fdtx8BfXPjHaUcK7P09L4MtpqMhs3bz31+ZyX+/KOgk2R162r+7flf+Mjb4XaWl5dz4sSJXL58uesUAAAA2DUMwAAA8ICYG9v/rh+1KdoiRYr0UmTu4J7smZ/Mxuog73rw89vLb/uue+Dk5OUjef36qY+oGu5seno6GxsbefHFF7tOAQAAgF3DAAwAAA+Ib3z837k15BZFkfbtH7SjUfpVmcWn92VrY/vm6Fvk1lOgixQ3j4Lf9bl+6bWfytpg9SNrhztZXFzMCy+8kGvXrnWdAgAAALuCARgAAB4QX7X49Ulx81/h27a99a7fouilKHrZtzKTqdmpbKxu5tYC/O7Vt33vD//xif8mw7b5yPrhdmZnZ3Pjxo2cPHmy6xQAAADYFQzAAADwwCjzzoT7zsOf2+LtIbhoU42XWX5mIVs3BmlHo6Rt0/bam68Dvvmb3vVW4Jv//Injf/0j/yrgCy0sLOTo0aNZW1vrOgUAAAAeeAZgAAB4gJS98uaK20tuTri9FEUyapMURfY9sidTeyeycX07SVKk9/alcPuub+8agdvWCEzn5ufns7q66goYAAAA7gEDMAAAPEBmJuaTJMXbW26Rmxe+RZJeUWRsvJ8DT+3L5trNATjtO899vvlI6PadFwe/81NJmlGdf3zyv/3ovgj4AkVRZH5+PkeOHMn6+nrXOQAAAPBAMwADAMAD5Bsf/S1JPn/HWxQ3V9wiRdq2TVsU2f/Y3kzOTGRzbfD2r7/r+vdd+2/b5taPr2+/lXNrr35UXwZ8kYWFhVy5ciWnTp3qOgUAAAAeaAZgAAB4gHxq6deneGe17d286k3bpugVKdoiZZH0J/tZfnpfNlY3b74L+O3r31u/r21v/kxx8+fKqsr81IEcmD7YzRcFufnncXZ2NkeOHMnW1tY9//zXr1/P9evX7/nnBQAAgJ2m6joAAAB4/6r0UxQ3r31vHvXeHH/b0ejmFpwiRdtm7tGZTLw8ls31QSb3jCdtkXee/lyWZVIUmZnek/0zK3l6+hPZN7bS6dcFSbK4uJiXX345p0+fzsc//vF79nk3Nzfzm37Tb0qS/NIv/VImJyfv2ecGAACAncYADAAAD5iyKG491Dm5eTnZFu96unOvysREm4Un5vPG8QuZnJm4+eifXi/jY+NZmJvP3pn5PNX/qsz05rv4EuC2iqLI9PR0jhw5kkOHDqXf79+Tz/vu9wqvr68bgAEAANjVPAIaAAAeMPNTS7eueduiuPku3zZJUWQ4apMMk6LI4hNzGZ8ey2CzyZ7pvXny4BP5xDNfmc/s/8351PhvMv6yIy0tLeXNN9/Mq6++es8+540bN277fQAAANiNDMAAAPCA+YoDX33rfb69on1n+03bjtLrJUmRoldkamYiz33yqSz09+f5xz+WQV3npZdfyHTmOqyHuyvLMuPj4zly5Eiaprknn3NjY+PW9w3AAAAA7HYGYAAAeMB83cq33nr+c9smRdrknUvgt4fhlf0r+Y2f+g35d7/lt6Wc6OXFMyey2WxmWDQZNNudtcP7sbS0lNdffz1nz569J5/vCx8BDQAAALuZARgAAB4w/XIsRVnceudv+/b3yl6ZxYXF/Pav/h359BOfyasXzuTFt45n9vGpXL9yI2XZS39sLD99+u90Fw/vQ7/fT1mWOXLkSEaj0Yf+fB4BDQAAwMOk6joAAAD44HpFmSY3X/7bK3uZ7E/kk89+ZZ6f+2z2F0+lGbT56av/NNPTUznwxL68ceJStjfq9Mf72RhspGmbVIW/DrBzrays5MyZM3n99dfz+OOPf6jP5QIYAACAh4kLYAAAeADtGZtNUSRVWeXjTz+f3/M1353fOP9deaz4dCYzm5mxufQznsF2ncm9Y1l+el+uX76RXtlLf6zKz7ziCpidbWxsLEly9OjRtG37oT7Xu0dfF8AAAADsdgZgAAB4AH3Lk787eyan8x2f/d58+8oP5OneV2csk+/5mD/22b+Yuq4zqAdZemohRdlLvVmn3x/L5uhG2nz4R+vC/bSyspLTp0/nzTff/FCfxwAMAADAw8QADAAAD6Dn9n0mf/STfymHJj+Tz78N+L0WJhZTtv1sbW1lanYiy08tZPXSjfR6vYyNjefnTv/kR1wNH8zExESapsnx48c/1OfZ2Ni49X2PgAYAAGC3MwADAMADqOxVmR1f+JIf94c+/WfTNE22B9tZemohvbKXZrtJ1S+zWr+V5MM9Whfut+Xl5Zw8eTIXL178sj/Hu69+XQADAACw2xmAAQBgF1vZ83h6ozL1oM70vskceGw+qxfXUpZVxsbG8gtn/ueuE+Gupqens7W19aGugD0CGgAAgIeJARgAAHa5P/DJP5NBXacebGf56f1pi2Q4GKbfr3JlcL7rPPiSlpaWcuLEiVy9evXL+v3vHoA9AhoAAIDdzgAMAAC73BOzzyWjZLA9yMyBqRx4bF9WL62lLMuM9cfyL17/X7pOhLvau3dv1tfX89JLL31Zv98FMAAAAA8TAzAAADwEft/Hvy9NU6euB1l+Zn9GozajYZuqX+XC5mtd58GXdODAgRw/fjyrq6sf+Pe6AAYAAOBhYgAGAICHwHP7P53hqM2gHmR2cToLj8xl9dJaqrKffn8sv3ru57tOhLuam5vL6upqTp48+YF/740bN9K2bdq2zdra2n2oAwAAgJ3DAAwAAA+Jbzv0h1JvD1LXgxw8tD9NPUo7uvku4NfXTnSdB1/SwsJCjh49+oGveN/92GePgAYAAGC3MwADAMBD4lPL35BmOMr29nb2Lu7NwsHZrF5aT1lW6Y+P58jFX+46Ee5q3759uXr1al5++eUP9PvePRhvbGxkNBrd6zQAAADYMQzAAADwEPnWp39v6qbOcHTzXcCD7SZFm4xVVU5eO9J1HtxVURSZm5vL4cOHs7m5+b5+z3A4zPb29q0ft22bjY2N+5UIAAAAnTMAAwDAQ+TrHvmtGY5uXgHvO7g388t789bltfTKKv2xfl68/GtdJ8JdHThwIJcvX84rr7zyvj5+fX09bdu+5+c8BhoAAIDdzAAMAAAPmW9+5HemruvUwzoHnz2Q7Y06RZH0q7Ecu/KrXefBXRVFkT179uTw4cMZDAZf8uNv975gAzAAAAC7mQEYAAAeMr/hyW/LcDjMYHs7c8szmVvcm+uXb6RflRkbG8srV493nQh3tbS0lPPnz+f06dNf8mNvN/bebhQGAACA3cIADAAAD6GvWfr1aZomowxz8Ln92VwfJEUvY/0q/+ulf951HtxVr9fL1NRUDh8+nKZp7vqxLoABAAB42BiAAQDgIfTbnv2DaZom9fYgCwfnMrNvOmtX11OWVap+P2fXTnWdCHe1tLSUc+fO5cyZM3f9OAMwAAAADxsDMAAAPKSeX/jqbNd12qLOo88tZeP6ZopekbF+P//63M92nQd3VVVV+v1+jhw5kuFweMePMwADAADwsDEAAwDAQ+r3fvx7Mxo1GWw32f/I3uyZn8qNaxupqipVv8z59de7ToS7Wl5eztmzZ/P663f+s3q7Adg7gAEAANjNDMAAAPAQe2r2+QwGdUZVm4PPLWX9rc0URS/9sfH88us/1XUe3NXY2Fh6vV6OHTuWtm1v+zG3u/Z1AQwAAMBuZgAGAICH2Hd95Q+mHtWpB3UOPD6X6dmprK9upCrL9Pq9XNk433Ui3NXy8nJOnz6dc+fO3fbXXQADAADwsDEAAwDAQ+7R6SdTb2+n6I1y8LnF3Li2kaLoZazfzy+c/Ydd58FdjY+PZzgc5ujRo7e9At7Y2Piin3MBDAAAwG5mAAYAgIfcH/n0n89g2GRQNznw+FymZiezsbaZftlPryyyunW160S4q+Xl5Zw6dSoXL178ol+73djrAhgAAIDdzAAMAAAPvV4WJ1ZS14OU/eTgMweydnUjRVmkP9bPz5/5e10Hwl1NTU1lMBjk+PHjX/Rrt7sAXltb+yiyAAAAoBMGYAAAIN/72b+YuqkzqAdZeGwuE9Pj2VzbTr9fJVWb9YHBjJ1teXk5J06cyOXLl9/z8zdu3Ejbtu/55hHQAAAA7GYGYAAAIL1eP7P9fRkMBhmbKvPIof25fuVGer1e+mNj+ZlXf7LrRLirPXv2ZH19PS+99NJ7fv52Y68BGAAAgN3MAAwAACRJ/vhX/4epmyaDwSD7n5jP+ORYttYH6Zf9jHp1tpovfpQu7CRLS0s5fvx4rl27duvnbve+X+8ABgAAYDczAAMAAEmSfjmR6XJvmkGd8ekqK4cOZO3KenplL2P9sfzs6Z/oOhHuanZ2Njdu3MjJkydv/dztrn29AxgAAIDdzAAMAADc8v1f/cMZNHW2B4MsPjGfaqzK9sZ2yn6VQbZTj7a7ToS7WlhYyNGjR2+NvBsbX3y5vr29nbquP+o0AAAA+EgYgAEAgFum+jMZ601msF1nYs9Ylp/en+uX11OV5c13AZ/+u10nwl3Nz8/nrbfeyssvv5zkzo97vt0wDAAAALuBARgAAHiP7//MX0ozbFLX21l8Yl/KfpnBVpOxqsrmcC2jtuk6Ee6oKIrMz8/nyJEjuXr1aprm9n9ePQYaAACA3coADAAAvMfeiYVU6Wd7UGdqbizLTy5k9eJaemWZ8bGx/Mzpn+w6Ee5q//79uXz5co4dO3bHj7nTZTAAAAA86AzAAADAF/ner/oLqZsmg3o7i08tpFf2Ug+alP1+bjTX06btOhHuqCiKzM7O5td+7dfStrf/s3rjxo2PuAoAAAA+GgZgAADgi+ybXk5v1Mtgu87U3HgWn9iX1Us33n4XcD//7Mw/6DoR7urAgQN54403MhgMbvvrBmAAAAB2KwMwAABwW3/kU38uTdNkWA+y/NRCkqSuhxmrqlzbvpC4AmYH6/V6Kcsym5ubt70CNgADAACwWxmAAQCA21re+0QySrYHg+zZP5kDj83n+qUbKcsq/bGx/NLr/0vXiXBX09PTaZrmtlfA3gEMAADAbmUABgAA7ugPfOWfSd00qes6K0/vz2jYZjgcpd+vcnH9ta7z4K4Gg0GKosjW1tYXXQG7AAYAAGC3MgADAAB39OTc8xkN29T1IDMHprL/sbmb7wLuVanGxvOvzv1c14lwR9vb26mqKoPBIHVdv+fXXAADAACwWxmAAQCAu/r2j39fBoM69bDOyjP7M6yHGY5uXgG/sXay6zy4o83NzRRFcesK+N3W1tY6qgIAAID7ywAMAADc1cf3fyaj0SiDwSCzB6az7+DszSvgskzVH8vnLvxS14lwW9vb20mSfr//RVfAHgENAADAbmUABgAAvqTf+cx3pxnUaUY3r4Dr7SajNumP9XPqreNd58Ftvfvdv23bZnNzM23bpm1bAzAAAAC7lgEYAAD4kj698k1phqMMtuvMr8xk38psrl++kbIs0+/388Llf9N1InyRzc3NW99/97uAx8bG8slPfrLDMgAAALh/DMAAAMD78i1PfXvqpk4zanLw2f0ZbAySNun3yxy/YgBm53nnEdBJ0uv10rZtvumbvin/8B/+w3z/939/h2UAAABw/xiAAQCA9+UbHv3WDJsm9aDO3Mps5pZmcv3Keqqqn7F+PyevHu06Ed5ja2srSTI+Pp7k5ruAP/vZz6Yoii6zAAAA4L4yAAMAAO/bNz7227LdDNK2TR792GK217fTpki/X+XIpV/uOg/eYzQa5Tf+xt+Yv/yX/3KKokiv18vW1lZefPHFrtMAAADgvjEAAwAA79tvfvLbMxoMMxgMMreyN3v3z2TtynrKqp+qKvPa9ZNdJ8Itf+pP/al8x3d8R/bu3Xvr5xYXF/PCCy/k6tWrHZYBAADA/WMABgAAPpDPHPym1IM6o2KUR55bzOaNrRQp0h/r51+/+fNd58EtVVV90c/t3bs36+vrOXnSf6wAAADA7mQABgAAPpDfcei7Uw+b1INB9h3cm737prN2bSNV2U/ZL/PmjTNdJ8IXads2bdsmSfbv35+jR49mdXW14yoAAAC49wzAAADAB/bc/CdTbw+Sss3B5xazsbqZoldkrD+WX379n3SdB3c1Pz+f1dXVvPzyy12nAAAAwD1nAAYAAD6w3/8V/16a0TB1Pcj+x2azZ24q629tpiyrlFWZyxsXuk6Eu9q3b1+OHj2a9fX1rlMAAADgnjIAAwAAX5bHZ57L9mCQokwe+diBrL+1kbK4+S7gXzz7D7rOg7taWFjI1atXXQEDAACw6xiAAQCAL8v/7lM/mFHdZHuwnQOPzWV6djLr17fSr6r0qiKrW1e6ToQ7Koois7OzOXLkSLa2trrOAQAAgHvGAAwAAHyZelmefjxN3aTXL7Jy6EDWrq6nV/TS7/fz82f+p64D4a4OHDiQixcv5pVXXuk6BQAAAO4ZAzAAAPBl+yOf/nOp6zrb9SAHHpvN1Mx4Nm5spyqrpGyzPljtOhHuqCiKzMzM5PDhwxkMBl3nAAAAwD1hAAYAAL5svV4/+yYXUw/qlBPlzSvgKzdSljevgH/m1b/XdSLc1eLiYs6fP59XX3216xQAAAC4JwzAAADAh/K9n/6Lqesmg3qQA0/MZ3x6LJs3BimrKsOizlaz0XUi3FFZlpmcnMzhw4fTNE3XOQAAAPChGYABAIAPpV9OZGZsNvWgTn+qzMGn9+f6lRupyl7G+/389Omf6DoR7mppaSnnzp3La6+91nUKAAAAfGgGYAAA4EP7/s/8cJqmST0YZP8T+zI2MZatjTpVv0qT7QxG210nwh1VVZWqqnL48OGMRqOucwAAAOBDMQADAAAf2kR/OhPlVAaDOhMz/Rx8ZiGrl9dT9qr0x/r5mVOugNnZlpeXc/bs2bz++utdpwAAAMCHYgAGAADuie/77A+nGd68Al54fD7VWJntrTpVVWUrG2la71dl5xobG0tRFDl69Gjatu06BwAAAL5sBmAAAOCemBmbSz8T2a7rTM1OZPnJfbl++UaqXpmxfj8/d/onu06Eu1peXs7p06dz7ty5rlMAAADgy2YABgAA7pnv+exfSNPUGdSDLD+1kF6vl8H2MGW/yo3h9bTxflV2romJiQyHw7zwwgtdpwAAAMCXzQAMAADcM/smFlOmymCwnYm5iSy+fQXc75Xp9/v5+Vf/fteJcFfLy8s5efJkLly40HUKAAAAfFkMwAAAwD31hz/159M0TepmO8tP70+KpK5Hqaoqbw0uJfF+VXauqampbG9v5/jx412nAAAAwJfFAAwAANxTy3seS68t02w3mV6YzOLj+/LWpbWUZZn+2Fh+8ew/7joR7mppaSknTpzIlStXuk4BAACAD8wADAAA3HN/8Cv/TOqmTjPYztJTC8koGdXDVGWZSxtvdJ0HdzUzM5ONjY289NJLXacAAADAB2YABgAA7rnHZp9LO0oGdZ2ZA1PZ/9hs3rp0I2VVpT/Wz6+88dNdJ8JdLS4u5vjx41ldXe06BQAAAD4QAzAAAHBffMfz35e6rjMc1ll+Zn9GzSijZpR+VeWNG6e7zoO7mp2dzdraWk6cONF1CgAAAHwgBmAAAOC+eHb/pzMatRnUdWYXZ7Lw6FyuX7qRsqzS75f5t2/+QteJcFcLCws5duxY1tbWuk4BAACA980ADAAA3Dff9uwfTr09yHBY5+CzB1IPhmlHo1T9sbx6/cWu8+Cu5ufnc/Xq1Zw6darrFAAAAHjfDMAAAMB986mlr89wOMr29nZmF2ey7+DerF5eT1VVqfpVjl78la4T4Y6Kosj8/HwOHz6czc3NrnMAAADgfTEAAwAA99W3Pv0dqZs6o7bOwWcXM9iq0w7bjPX7OXHtc13nwV3t378/V65cycsvv9x1CgAAALwvBmAAAOC++tpHfkuGo1G2tweZX5nJ/NJM1q6upyz7qfpVXrpyuOtEuKOiKDIzM5MjR45ke3u76xwAAAD4kgzAAADAfffNj/zODOo6w7bJIx9bzPbGIEnSr8Zy9NK/7LgO7m5xcTHnz5/P6dOnu04BAACAL8kADAAA3He/4clvSzNqUm8PMr88k737p7N25Uaqqky/X+XV1Ze6ToQ76vV6mZ6ezuHDh1PXddc5AAAAcFcGYAAA4CPxdYvfnKZpMkqbRz62lM31QdIm1Vg///b8P+s6D+5qaWkpb775Zs6cOdN1CgAAANyVARgAAPhI/LZnvyuDpk49GGTfwdns3TeVG29tpOqVKcsyb6y92nUi3FFVVRkbG8vRo0czHA67zgEAAIA7MgADAAAfmU/s/9ps13VSjnLwuQPZuL6dXq9Ivz+Wf3Xun3adB3e1vLyc1157LWfPnu06BQAAAO7IAAwAAHxkvv3578lo1KTerrPwyFz2zE/lxrXNVFWVXlXk4vobXSfCHfX7/ZRlmSNHjmQ0GnWdAwAAALdlAAYAAD5ST88+n3owSFEVeeS5/bmxupVe0Uu/Gss/f/0fdZ3HLtW2bdq2/dCfZ3l5OWfOnMm5c+fuQRUAAADcewZgAADgI/UHvvIHMxg2qes6+x+dz565iaxf30hZlemVRVa3rnSdCHc0Pj6e0WiUY8eO3ZNBGQAAAO41AzAAAPCRe2zmqdTbgxRjycFDB3Lj2mbKoky/38/Pnvm7Xeexy7Rtm0OHDuXQoUP3ZLRdWVnJqVOncuHChXtQBwAAAPeWARgAAPjI/eGv+nOph03qQZMDj89lcmY8G2tbqap+il6yPljtOpFdpCiKnDp1KqdOnUpRFB/6801OTmYwGOT48eP3oA4AAADuLQMwAADQgV4WJ1ZS19spJ6o88uxi1q5upOz1UvXH8jOnf7LrQLirlZWVnDhxIpcuXeo6BQAAAN7DAAwAAHTiez77F1LXTerBdg48PpvxPWPZvLGdql9m1Btms1nvOhHuaHp6Opubm3nxxRe7TgEAAID3MAADAACd6PX6mZtYyGBQpz9Z5ZFnDuT6lfWUvZvvAv7p03+n60S4q8XFxbz44ou5du1a1ykAAABwiwEYAADozPd/5odTN00GdZ39T85lfLKfwfp2yqpK0w4yGG13nQh3NDs7mxs3buTEiRNdpwAAAMAtBmAAAKAz/XIi09We1IM6E1P9rBw6kNV3roDHxvLTp1wBc2+0bZu2be/5511YWMixY8eytrZ2zz83AAAAfDkMwAAAQKe+/7P/YephnUFT58Bj8+mPVxlsDFL1q2xnM03bdJ0IdzQ/P5/V1VVXwAAAAOwYBmAAAKBTU/2ZTBQTGWzXmZwdy/JT+3P92nrKouddwOx4RVFkfn4+R48ezfr6etc5AAAAYAAGAAC6972f+aHUwyZNPcjiU/tSlmUGW8NUVZmNei1tRl0nwh0tLCzkypUrOXXqVNcpAAAAYAAGAAC6t3diIWPpZ3tQZ3p2PEtP7sv1K2spyzL9sX5+9vRPdp0Id1QURebm5nLkyJFsbW11nQMAAMBDzgAMAADsCN/zVX8hTVNnMNjO0lML6fV6GWw16VdVrtdXk7RdJ8IdHThwIBcvXszp06e7TgEAAOAhZwAGAAB2hH3TyynaKtt1k+n5yRx4dC5rl9dTlmWqfj+/cOYfdp0Id1QURfbs2ZPPfe5zGQwGXecAAADwEDMAAwAAO8Yf+eSfzbBpUjeDLD1zIG2SZjBMv+rn8ta5rvPgrhYXF3P+/Pm8+uqrXacAAADwEDMAAwAAO8by3ifSjooMBoPM7J/Mgcfncv3yjZvvAu7388uv/5OuE+GOyrLMxMREjhw5kqZpus4BAADgIWUABgAAdpTv+sofyLCp0zR1Vp7an9FolGEzSr9f5dz6q13nwV0tLS3l9ddfz2uvvdZ1CgAAAA8pAzAAALCjPDn3XEajIoO6zsyBPVl4dC6rl26k16sy1u/nV9/8+a4T4Y76/X6qqsrRo0czGo26zgEAAOAhZAAGAAB2nN/z/PemqQcZjuqsPHMgw2aYdtSm6ld5bfVE13lwVysrKzlz5kxef/31rlMAAAB4CBmAAQCAHefj+z+T0ajNdj3I7OKe7FuZzeqltVS9KlW/ypGLv9x1ItzR2NhYkuTo0aNp27bjGgAAAB42BmAAAGBH+p3PfHeaus5w1OTgswdSD5qMRm3Gxvo5ce1I13lwVysrKzl9+nTefPPNrlMAAAB4yBiAAQCAHenTK9+UUTNKPagztzST+aXZXL9yI2Wvl6qq8tLl/7XrRLijiYmJNE2T48ePd50CAADAQ8YADAAA7Fi/5elvT93UadomB587kMFmnaSXfr/K0Su/0nUe3NXy8nJOnjyZixcvdp0CAADAQ8QADAAA7Fjf8Mi3Zjhs0gyazC3PZG5pJtcv30hVVqmqKq9cfaHrRB4Qbdt+5O/jnZ6ezvb2titgAAAAPlIGYAAAYEf7dY/+tgyGg7QZZuXQYrY3BilSpCr7+bWLv9h1HtzV0tJSXnrppVy9erXrFAAAAB4SBmAAAGBH+01PfnvaepSmqbPw6Exm9u/J2tX1VP0yVVXm7NqprhPhjmZmZrK+vp6XXnqp6xQAAAAeEgZgAABgx/v0yjelHgwzKto8+txiNq5vpSh6qaoqv/rGz3adB3e1uLiYY8eOZXV1tesUAAAAHgIGYAAAYMf7HYf+YOphnWZQZ+Hg3szsn8761Y30q37KqsjFG693nQh3NDc3l+vXr+fkyZNdpwAAAPAQMAADAAAPhOfnvyr1YJBR1ebgocWsr22l6PVSVWP5pdd/qus8uKuFhYUcPXo06+vrXacAAACwyxmAAQCAB8Lv+4o/keFomGZQ58Djs9kzN5n1tzZS9csUZZGrmxe7ToQ72rdvX65evZqXX3656xQAAAB2OQMwAADwwHhi5rnUTZ2iLHLw2cWsr26ml176/Sr/7LW/33Ue3FFRFJmbm8vhw4ezubnZdQ4AAAC7mAEYAAB4YPzBT/1gmrrJoB5k4bG5TO6dyPraVsqqStFLVreudp0Id3TgwIFcvnw5r7zyStcpAAAA7GIGYAAA4AHSy8r042maJtVYkYOHDmT92kbKXi/9fj8/f+bvdR0Id1QURfbs2ZPDhw9nMBh0nQMAAMAuZQAGAAAeKH/kM/9B6rrOoBlk/+NzGZ8ez+badsqqzKg3yvpgretEuKOlpaWcP38+p0+f7joFAACAXcoADAAAPFB6KbNvcinNoEl/sszBQweydnU9Za9Mv9/Pz776k10nwh31er1MTU3l8OHDaZqm6xwAAAB2IQMwAADwwPnez/zF1E2delBn8cm5jE+NZWt9kKqs0hR1tputrhPhjpaWlnLu3LmcOXOm6xQAAAB2IQMwAADwwOn3xrO3P5+6rtOfqrJy6EDWrqynLItUVT8/ffp/7DoR7qiqqoyNjeXIkSMZDodd5wAAALDLGIABAIAH0vd95ofSNHWaQZ39j82lP1Fle6NOv19mkK00bd11ItzR0tJSzp49m9dff73rFAAAAHYZAzAAAPBAmuhPZ6Lck0HdZHLvWJaf2p/rV9ZTFmWqfj8/feonuk5kh2jb9j3fdoKxsbH0er0cO3ZsxzQBAACwOxiAAQCAB9b3ffaH0gwHqetBFp+cT9Uvs71VpyqrbAyvp209Xpeda3l5OadPn865c+e6TgEAAGAXMQADAAAPrJmxuYxnIvVgmMm5iSw+uS/XL99IVfbS74/nZ07/ZNeJ7BCHDh3KoUOHus54j/Hx8QyHwxw9etQVMAAAAPeMARgAAHig/dHP/qXUw+0MBnUWn9qXXllksN2k7Pdyvb6WxLD2sCuKIqdOncqpU6dSFEXXOe+xvLycU6dO5cKFC12nAAAAsEsYgAEAgAfavokDKYuxNPUge+Yms/jEQq5fWk/Vq9Lv9/PPzvz9rhPhjqampjIYDPLCCy90nQIAAMAuYQAGAAAeeH/4k38uddNk0NRZfnohKZKmblL1q1zeclnJzra8vJwTJ07k8uXLXacAAACwCxiAAQCAB97ynsdStEWGdZ09C1NZfHxfrl+6kbJXZqzfzy+d/amuE+GO9uzZk/X19bz00ktdpwAAALALGIABAIBd4bu/8gdSN03qZpClp/enHbUZNsOU/SoXNl7rOg/uamlpKcePH8+1a9e6TgEAAOABZwAGAAB2hcdmn0vb3nz08+z+qex/bC7XL62n7PVS9av86hs/13Ui3NHs7Gxu3LiRkydPdp0CAADAA84ADAAA7Bq///nvT10PUg/rLD9zIMPhMO2wTVX2c/aGYe1h1bbte77tVAsLCzl69GjW1ta6TgEAAOABZgAGAAB2jUMLX5V21Kaum8wu7sm+g3NZvbyeqixT9av8rxd+qetEuKP5+fmsrq7m5Zdf7joFAACAB5gBGAAA2FW+7bk/mqauMxw1OXjoQJrtJqNRm6oqc+rasa7z4I6Kosj8/HyOHDmSjY2NrnMAAAB4QBmAAQCAXeWTi1+X4WiYuq4zu7wn+5b35vqV9fTKKlW/yguX/03XiXBHCwsLuXz5ck6dOtV1CgAAAA8oAzAAALDrfOtT35m6HmQ4HGblY4upt+oUo6RfVTl++V93nQd3VBRFZmdnc/jw4Wxvb3edAwAAwAPIAAwAAOw6X/vIb8pwOEpT15lf3pvZxZlcv7qRXlWmKqu8cvVo14lwRwcOHMiFCxfyyiuvdJ0CAADAA8gADAAA7Erf/MS3pW4GGbbDPPLcYgYbgxRtkX6/n1+7+Etd58Ed9Xq97NmzJ0eOHEld113nAAAA8IAxAAMAALvSr3/sd6YZjVLXg+w7uDd7909n7ep6elWZsipz9vrLXSfCHS0tLeXcuXN59dVXu04BAADgAWMABgAAdq2vXf7NGdVNRr1RDj63lK317fRSpF/186vnfrbrPLijsiwzPj6eI0eOpGmarnMAAAB4gBiAAQCAXeu3PfP7Uw+bNNt19h3cm5n56ay9tZGyrNIre3lz/WzXiXBHy8vLef3113P2rD+nAAAAvH8GYAAAYFf7xIGvyaAepChHOfjsYjbXttMrilT9sfzy2Z/qOg/uqN/vpyzLHDlyJKPRqOscAAAAHhAGYAAAYFf7PR/7ngyHTepBk4XHZjM9N5Ebq5upyjJFWeTyxoWuE+GOVlZWcubMmbzxxhtdpwAAAPCAMAADAAC73tOzn0hT1+lVySOHlrKxupFeUaTf7+cXX/sHXefBHY2NjSVJjh07lrZtO64BAADgQWAABgAAdr0/8MkfyGDYpKnr7H9sNlOzU1lf20pV9pKyzerW1a4T4Y5WVlbyyiuv5Pz5812nAAAA8AAwAAMAAA+Fx2aeTl03KceSg88uZv3aZsqiSr8/lp878/e6zoM7mpiYSF3XOX78eNcpAAAAPAAMwAAAwEPhD3/Vn03dNKnrYfY/OpfJmfFs3NhKVZZJMcz6YK3rRLij5eXlnDhxIpcuXeo6BQAAgB3OAAwAADwkelmcWE5dD9KfLLNyaH/Wrm2k1+ulrPr56dN/p+tAuKPp6elsb2/nhRde6DoFAACAHc4ADAAAPDS+57N/MU0zTN0McuDJ+UxMjWXrxiD9fj+jXpOtZqPrRLijxcXFvPjii7l61TurAQAAuDMDMAAA8NDo9fqZG19IPagzNl5l5dD+XL9yI0Uvqap+fvr0T3SdCHe0d+/erK+v56WXXuo6BQAAgB3MAAwAADxUvu+zP3TzXcBNncUn5jM+NZbBRp1+VWbQbqUebXedCHe0f//+HD9+PKurq12nAAAAsEMZgAEAgIdKv5zInmpv6rrJ2HQ/S0/vz/XL6+n1eun3q/z0qZ/sOhHuaH5+Pqurqzl58mTXKQAAAOxQBmAAAOCh832f/aE0TZ1m2GTxiflUY2UGm02qqspmu5ambbpOhDvat29fjh07lvX19a5TAAAA2IEMwAAAwENnqj+Tid5kBtuDTM2OZemphaxeuXHzCrjq5+dOuwJm51pYWMjly5fz8ssvd50CAADADmQABgAAHkrf+5m/lKZpMqiHWX5qIWXZS7M1TFlVuV6/lTajrhPhtoqiyPz8fA4fPpzNzc2ucwAAANhhDMAAAMBDae/EQsaKsdT1IFPzE1l88uYVcFmW6fer/Pyr/6DrRLijAwcO5NKlSzl9+nTXKQAAAOwwBmAAAOCh9ce+6i9kWNdp6jrLTy2kKIo0202qsp9r2xeStF0nwm0VRZGZmZkcPnw4g8Gg6xwAAAB2EAMwAADw0No3vZyiKLNd15neN5kDj81n9fKNlFUvZb/KPz/7U10nwh0tLi7mzTffzKuvvtp1CgAAADuIARgAAHio/ZGv/HMZNk2GTZOlZ/anaJPhYJR+WeXC+tmu8+COyrLM1NRUDh8+nKZpus4BAABghzAAAwAAD7XlvU+kbYvU9SB7D0xn/2Nzuf72u4CrfpVfeeNnuk6EO1paWsobb7yRM2fOdJ0CAADADmEABgAAHnrf9RU/kLquM6zrLD9zIMNmlGHTpl+VObv2ctd5cEdVVaXf7+fIkSMZjUZd5wAAALADGIABAICH3pNzz2XUJoOmzt7F6ex/ZC7XL99Ir1elX/Xzb9/8ha4T4Y6Wl5dz9uzZnD3rkeUAAAAYgAEAAJIkv/f570tT1xmNhll55kCGzTDt6OaF5em3Xug6jw+pbdu0bdt1xn0xNjaWoihy7NixXfs1AgAA8P4ZgAEAAJI8v/8zGY3abNeDzK7MZH5lb9Yuf/5dwEcv/UrXiXwITz/9dJ5++umuM+6blZWVnD59OufOnes6BQAAgI4ZgAEAAN72bc9899tXwHUeeXYx9aBO0SZlVeXFK5/rOo8P4fTp0zl9+nTXGffN+Ph4mqZxBQwAAIABGAAA4B2fWvl1GTaj1IMmcyt7M7u8N9cvr6eqyvSrMievHuk6Ee5oZWUlp06dysWLF7tOAQAAoEMGYAAAgHf5rU//3gyaOsNhk0cOHcj21iBpi1RVlc9d/OWu8+COpqamsr29nePHj3edAgAAQIcMwAAAAO/y9Y/81rTDJk3dZG5lNrOLM7lxdSNlVaYqy7y2erLrRLijpaWlnDhxIleuXOk6BQAAgI4YgAEAAL7ANz36O1I3gxTFKI88eyBb69vptUWqfpVfffPnus6DO5qZmcnGxkZeeumlrlMAAADoiAEYAADgC3zzk/+bDJth6maQfY/uzcz+6axd3UhV9lKWvbx540zXiXBHi4uLOXbsWFZXV7tOAQAAoAMGYAAAgNv4zMo3px4M0/aSR55dysaNraToper38y9e/1+6zoM7mp2dzY0bN3LixImuUwAAAOiAARgAAOA2fsehP5BmWKcZ1Nn/yExm9k1n463N9N6+Ar68cb7rRD6Atm3Ttm3XGR+ZhYWFHDlyJGtra12nAAAA8BEzAAMAANzBc/s+nboeJFWRg88tZX11M2VRpiyr/MLZ/7nrPLij+fn5vPXWWzl16lTXKQAAAHzEDMAAAAB38B2f+ONphsPUdZ0Dj85mem4q66ubqfpl0muzunWl60S4raIoMj8/n8OHD2dzc7PrHAAAAD5CBmAAAIC7eGLm+dRNnaKfPPLcYm68tZGy6KVf9vOzZ/5u13lwR/v378+VK1fy8ssvd50CAADAR8gADAAAcBff/ak/k7q+eQW88Nhcpmcns359++YVcJGsD1a7ToTbKooiMzMzOXLkSLa3t7vOAQAA4CNiAAYAALirXh6ZfiJNU6c/3ssjhw7kxrX19HplqqqXnz79E10Hwh0tLi7m/PnzOX36dNcpAAAAfEQMwAAAAF/CH/7Mn0tdNxk0g+x/fD6T0+PZXttOWfUzKppsNRtdJ8Jt9Xq9TE9P5/Dhw6nruuscAAAAPgIGYAAAgC+hlzL7ppbSDJr0J8usHDqQ1Ss3Upa9VP1+/ukrf6frRLijpaWlvPnmmzlz5kzXKQAAAHwEDMAAAADvw/d/+ofSNE3qus7+J+cyPj2erRuDlL0qdbuVwcg7VtmZqqrK2NhYjh49muFw2HUOAAAA95kBGAAA4H0oe/3MjM2lruuMT49l+emFrF1dT1n2Uvar/PQpV8DsXMvLyzl79mzOnj3bdQoAAAD3mQEYAADgffoTn/3LaZomw7rO4uPz6Y9V2d6o0y+rbI3W07RN14lwW/1+P0VR5MiRIxmNRl3nAAAAcB8ZgAEAAN6nfjmRyXI6g7rO1Ox4lp7en+tX19Mry1T9Kj97+ie7ToQ7WllZyZkzZ3Lu3LmuUwAAALiPDMAAAAAfwB//6r+cYdOkbuosPTGXquql3qpTlmXW6rfSxnUlO9P4+HhGo1GOHTuWtm27zgEAAOA+MQADAAB8AFP9mYwV42kGTab2TWbpyYVcv7yesle9fQX897pOhDtaWVnJqVOncuHCha5TAAAAuE8MwAAAAB/Q93z2hzJo6jR1k6Wn5tPr9dIMmpRlmWuDy0lcV7IzTU5OZjAY5Pjx412nAAAAcJ8YgAEAAD6guYn9qYp+6kGdqfmpLD4xn+uX11P1qvSrKr/w2j/qOpEv0Latxx6/bWVlJSdOnMilS5e6TgEAAOA+MAADAAB8Gf7wp/5cmmGTZlhn8el9SZJh3aSqylzafL3jOriz6enpbG5u5sUXX+w6BQAAgPvAAAwAAPBlWNrzWNL20tRNZvZP58Bj81m9vJGy10tVVvnl1/9p14lwR4uLi3nxxRdz7dq1rlMAAAC4xwzAAAAAX6bv/tQPpmmaDIdNlg8tpB2NMhy2Kasq52680nUe3NHs7Gxu3LiREydOdJ0CAADAPWYABgAA+DI9NnMo7ahIUzfZuzCdhUfmbr4LuOyl7Ff5N2/+s64T4Y7279+fY8eOZW1tresUAAAA7iEDMAAAwIfwHZ/44xnUdYajJiuHFjKsRxkN2/TLKq+uescqO9f8/HxWV1ddAQMAAOwyBmAAAIAP4dl9n0w7alM3w8wuzWTh4FyuX9lIr+yl6lf5Nxf+RdeJcEfz8/M5evRo1tfXu04BAADgHjEAAwAAfEi/67k/krqpMxw2OXhoX5rtJu0o6ZVVTl890nUe3NHCwkKuXr2aU6dOdZ0CAADAPWIABgAA+JA+ufh1GTXDNMMmcyt7s29lNmtX1lOVZfpVlb9+/Be7ToTbKoois7OzOXLkSLa2trrOAQAA4B4wAAMAANwDv/3p/22auk4zbLJyaH8GW3Xatk1VlZkvjuevvnCh60S4rQMHDuTixYs5ffp01ykAAADcAwZgAACAe+Czj/zG1MNRmqbJ3MGZzC3uzfrVjfTKMv2qzHhO5786dbXrTPgiRVFkz549+dznPpfBYNB1DgAAAB+SARgAAOAeuZzfkLpp0rZtDj67P1sbdVIUKasqC/lcLg8G+Sfnr3edCV9kcXEx58+fz6uvvtp1CgAAAB+SARgAAOAeGe355jSjYep6kPmDe7N3/3RuXF1PWZUZq8pMjd7I565t5JU171plZynLMhMTEzl8+HCapuk6BwAAgA/BAAwAAHCPfMvSnlzJZzKsh0nZ5pFnD2TrRp1ebl4BH+j96yTJT7z+VjZGo45r4b2Wlpbyxhtv5LXXXus6BQAAgA/BAAwAAHCPfNvKbM7nW1KP6jSDJguPzGZm31TW39p4+wq4l/H2YpLkR1+6GBMwO0m/309VVTl69GhG/gMFAACAB5YBGAAA4B4pkxRJ3mo/kbquk7LNwecWs3F9O0WKlGWVpeJfpm3bJMn/48XznfY+TJaXl7O8vNx1xo63srKSM2fO5PXXX+86BQAAgC+TARgAAOAeKnplXu/9uxkOh2nqYRYe25vpualsrG6m7FcZK4uMZTVt26Ztkx85ebnr5IfC+fPnc/68wf1LGRsbS1EUOXr06K3/UAEAAIAHiwEYAADgHjowOZYkuT56OoOmSa/s5ZHnDmTjra300kuvV6ZqN1MkSdtmu2ny3756rdNmeLfl5eWcPn06b775ZtcpAAAAfBkMwAAAAPfQp2fHkyRnyt+bpmnS1HUWHpvNxN6JvHpxPi9t/86sZzk3byuLJMm5ze38/MW1zprh3SYmJjIcDnP8+PGuUwAAAPgyGIABAADuoe98fO7W92+0j2R7UOe1wdfk3IE/mtcvzSUZpbi5+94cgd9+yu6vXlnPKzcGH20s3MHy8nJOnjyZixcvdp0CAADAB2QABgAAuIemyt7bd73Jmd4fyOfafz9vDL86M489lbHpPRncWEuRd3bfNm3x+fes/sTZq1lvRh99NHyBqampbG9vuwIGAAB4ABmAAQAA7rGyKpPcHHnbtk3RS8b2zGTvU89m+62rGbU3H/5ctLl1Ady+PRv/2MmLMQGzEywtLeWll17K1atXu04BAADgAzAAAwAA3GMz/fLW94skGd38q9fME0+nPzmdZuNGkqTt3Rx92/ZdS3CSv/rChY8qFe5oZmYmGxsbefHFF7tOAQAA4AMwAAMAANxjn5iZSN55EHRRJL02RZGM753N3ieeydbVyzevf98efYtbD4W++eNh2vzoyUsdlMN7HThwIMePH8/q6mrXKQAAALxPBmAAAIB77LuemE9y8znPRZEUbZHR2/vuzSvgydRb6zc/pMjN9wC3774BTjaaYf6/r3n0Lt2am5vL2tpaTpw40XUKAAAA75MBGAAA4B5bGCvT6xU3R902SdGmVyQpehmbnc/ME89k6+qVFG8f/r7zLuCbN8PFrc/zxvogP3/xehdfAtyyb9++HDt2LGtra12nAAAA8D4YgAEAAO6Dovfuv24VN7+NRukVRWaeeCa9qp9mczO5uROnuPXho/d8nl+9spFXbgw+mmi4jX379uXq1as5depU1ykAAAC8DwZgAACA+2CifO8A3CZJcfNR0OOz+7L38WeyefXyzV8tipuXwm8Pxe0XfK6fOHs1N5pRoAtFUWRubi5HjhzJ5uZm1zkAAAB8CQZgAACA++DjsxMpince6tym9/b7fnvFzWc9zzz5dIpemXpzK0n79gjc3hp/2y+YgX/85KWYgOnKgQMHcvny5bzyyitdpwAAAPAlGIABAADug+96dP7WiNsWufm3rzZpU6RIkcl9B7L38Sezfe3S29e/bw++7c0XAhfvehfwzV9t85+9dPEj/Arg84qiyJ49e3L48OEMBh5JDgAAsJMZgAEAAO6Dg5NVeu+MuO07Y25x839FUvSKzDxxKEXRy7DeTvv2hXBR5IvG37z942Y0yn/x8qWP7GuAd1taWsr58+dz+vTprlMAAAC4CwMwAADAfVL0Pj/ktu3NHbiXIqP25mOgp/YvZc8jj2X7yqUU73zMu6+B8873P//jG/UoP3tx7SP6CuDzer1epqamcvjw4TRN03UOAAAAd2AABgAAuE/GivLmd4qbA+47I2+RXtLefKzu7JPPZNQmTT24dQE8St7efNubv6t9ZwC+eRu8Wo/StG3go7a0tJRz587lzJkzXacAAABwBwZgAACA++T5+akURd7ecW+uuze/26Yd3RxwJw8czMzKI9m6evnWBXDvnedEvzP+Fr30UuTjeyfyp55dzLc/Mpuq+MLHRMP9V1VVxsbGcuTIkQyHw65zAAAAuA0DMAAAwH3yex+ZSW69B7hNcetHRYpe7+ZlcNHLzFPPJcMmbT14+0PbvH0HnIl+meWJKn/y2QP5tkdmM1UZfunW8vJyXnvttZw9e7brFAAAAG7DAAwAAHCfHJoee/uhzZ9//HNbvDPwthm1vfR6ydTiSqaXHs3m1Ss3R+KiSC9tDk72812P78sfemoh05W/vrEz9Pv9lGWZI0eOvP1nGQAAgJ3E/wcBAADgPire/lvXzbf5tukVxa13/aYdZdQWKcoys88cStvUGQ2HKXtl0qvy3U8uZP941WU+3Nby8nLOnDmTN954o+sUAAAAvoABGAAA4D4aK6tbV72fv/4tbr7aNze/9dLL9MrjmX3k8fS2NrNnz3T6/bH8w7Mnuo2HOxgfH89oNMqxY8dcAQMAAOwwBmAAAID76Lm9E0lRpG3bFG2SFGmLm9Nvr+ilV9y8Ep6a3pODX/XZpBmkbdv0+2VObM53XA93try8nFOnTuXChQtdpwAAAPAuBmAAAID76LcuTn/+Ajg3L36rIun3ivyuR+fyI1/zRIq2zWg0yvTBxzK9tJKNKxdT9sqUVZWfeeNUx18B3N7U1FQGg0FeeOGFrlMAAAB4FwMwAADAffSZ+cmkVyS5OQLvm6jy+x+bz9/6hifzXU/uy8J4lV+/73KaZpjRMNl36OOp1zeStKmqKp+7MdPtF7BLtG3rUcX3wfLyck6cOJHLly93nQIAAMDbDMAAAAD3UZlkZmwsi1Nj+T9+fDn/+Vc/lt/96Fyqorj1Mf/ex78+o2GTumkyffDxTB9Yyvrly+mVZar+WH7p4tnuvgC4iz179mR9fT0vvfRS1ykAAAC8zQAMAABwn/34Zw/mr376kXx6fvKOH/OZmYsZjuq0RZF9z30i9fpaekmqssyvXBv/6GLhA1paWsrx48dz7dq1rlMAAACIARgAAGBH+A8+9Q0ZNcPUTZM9jzyWyYX92bh6JWVZpqqq/NvLr3edCLc1OzubGzdu5OTJk12nAAAAEAMwAADAjnFo8kKaus6orLLw3FdksLaaFElZ9fPzV6qu8+COFhYWcvTo0aytrXWdAgAA8NAzAAMAAOwQ/9FnvjHD4TDNoM6eR57MxPx8tq5dTVn2UlVjefHq+a4T4bbm5+ezurqal19+uesUAACAh54BGAAAYAd5ZPximnqYVFUWnv2KbK9eSy+9lFU//+hS23Ue3FZRFJmfn8/hw4ezsbHRdQ4AAMBDzQAMAACwg/ynX/MNaYZN6rrOnseezMTcfLauX3v7Cng8r65d6ToRbmthYSFXrlzJqVOnuk4BAAB4qBmAAQAAdpj9vYtpmjq9sfEsPPeJbL11Ob0UKat+/u4bW13nwW0VRZHZ2dkcPnw429vbXecAAAA8tAzAAAAAO8xf+8avz3A4ymDQZPqxpzI2M5+ttdWUZS9FNZU311e7ToTbOnDgQC5cuJBXXnml6xQAAICHlgEYAABgB9pbXEnT1CnHJrJw6GPZuno5vV4v/arM/+/1613nwW31er3s2bMnR44cSV3XXecAAAA8lAzAAAAAO9B//o2fzXA4TD1ssvfJZzK2Zybba9fTK8uknMrV7fWuE+G2lpaW8uabb+bVV1/tOgUAAOChZAAGAADYgar0MpFraeo6vYnp7Hvm+WxeuZSy10u/qvK3T1/pOhFuqyzLjI2N5ciRI2mapuscAACAh44BGAAAYIf6sa/7ZIbDUeq6zsyTT6U/NZXBxo2UVZWUe3Kj2eo6EW5reXk5r7/+es6ePdt1CgAAwEPHAAwAALBDTVT99EdvZdgMU+2ZzfzTH8vmlUvpFb1U/TJ/69S5rhPhtvr9fsqyzJEjRzIajbrOAQAAeKgYgAEAAHawv/a1z6UeNqnrOrNPPpNybDz1xnrKssyotzeDoUfssjOtrKzkzJkzeeONN7pOAQAAeKgYgAEAAHawmbGplKMbGdbD9PfOZ+6pQ9m4cjFlr0zV7+e/fPnVrhPhtsbGxpIkR48eTdu2HdcAAAA8PAzAAAAAO9z/7TOPphk2aepB5p56Nr2qSr21mbKsMujNpYlH7LIzrays5PTp0zl//nzXKQAAAA8NAzAAAMAOtzQ1l95oI3UzTH9uIXNPHsrG5Qvp9Xqpqn7+xolTXSfCbU1MTKSu6xw/frzrFAAAgIeGARgAAOAB8B995YE0zTBNU2fuqefS6/Uy3N5MVZbZynzaeMQuO9Py8nJOnDiRS5cudZ0CAADwUDAAAwAAPACenj2QYrSZumkyvrA/s088k41LF1OWZcp+lb/18smuE+G2pqens729nRdeeKHrFAAAgIeCARgAAOAB8UMf35th06Rphpl7+rmkaDMcDFJVZVZH+7rOgztaXFzMiy++mKtXr3adAgAAsOsZgAEAAB4Qn9h3MO1okKZuMrmwmL2PP/32u4DLVP0q//XLL3WdCLe1d+/erK+v56WX/BkFAAC43wzAAAAAD5AfeKqfetikHjaZf/q5jEbDjJomVVXmkitgdrD9+/fn+PHjWV1d7ToFAABgVzMAAwAAPEC+ceWpZDhI0zSZOLCSvY88kY1L51MVZaqqn//h1RNdJ+5IbdumbduuMx5q8/PzWV1dzcmT3lcNAABwPxmAAQAAHjB/6LE6dTPMcDjK/KHnM2rqjEbDlGWZ1wfzXefBHS0sLOTYsWNZX1/vOgUAAGDXMgADAAA8YH77459IO2zSNHWmllYys/JYNi5dTFmVqaoqf+81F5bsTPv27cuVK1fy8ssvd50CAACwaxmAAQAAHkC/Z/lG6qa5dQXcDLaSZpiyqvLK1lzXeXBbRVFkbm4uhw8fzubmZtc5AAAAu5IBGAAA4AH0nc98VUbDYeqmydTBRzOzfDCbVy+n7PVSVVX+6eunuk6E2zpw4EAuX76c06dPd50CAACwKxmAAQAAHlDfsm81TdNkNGwz/+zHU2+uJ6M2VVnlyPpM13lwW0VRZM+ePTl8+HAGg0HXOQAAALuOARgAAOAB9X0f/0xGo2GaZpg9y49menElm1cvpyh7qap+/vmbr3adCLe1uLiYN998M6+++mrXKQAAALuOARgAAOAB9vWzl9IMhxkVZeaf+3jqjRvptW3Kfpl/dX2q6zy4rbIsMzU1lcOHD6dpmq5zAAAAdhUDMAAAwAPsf/8VX59hU6euB9lz8PFM7T+QzWtX0yvKlGU///ry2a4T4baWlpbyxhtv5MyZM12nAAAA7CoGYAAAgAfcV0xfTN0M05ZFFj72FRlcfyu9IqmqKr94eazrPLitqqrS7/dz5MiRDIfDrnMAAAB2DQMwAADAA+6HP/0NGQ6HaQbDTK88kcmF/dm6djW9spei38/xqxe7ToTbWl5eztmzZ/P66693nQIAALBrGIABAAB2gafGz6dumqSqsu/Zr8jW9WspiyL9qspPXRp1nQe3NTY2ll6vl2PHjqVt265zAAAAdgUDMAAAwC7wf/6ab0w7HKap6+x9/KlMzO3L1ltXU5Zlymosr6xd6ToRbmt5eTmnT5/OuXPnuk4BAADYFQzAAAAAu8RyeT513aSt+tn/3Fdkc/VqiiRlWeV/OrfddR7c1vj4eIbDoStgAACAe8QADAAAsEv837/+GzNqR2nqJjOPP53xvfPZvr6asixTlBN5c+OtrhPhtpaXl3Pq1KlcvOh91QAAAB+WARgAAGAXmS8upG7qFP3x7Dv0fLauXUnZ66Wqyvz3r93oOg9ua2pqKtvb2zl+/HjXKQAAAA88AzAAAMAu8iPf8LUZDYeph3Vmn3wm/T0zn78CriZzdXu960S4raWlpZw4cSJXrnhfNQAAwIdhAAYAANhFeullJldTD5r0Jqey79DHs3H1cnq9Xsqqyt8+fa3rRLitmZmZbGxs5KWXXuo6BQAA4IFmAAYAANhl/rOv+1SGoyb1oM7ck0+nPz2Vem0tVVkl5UTWms2uE+G2FhcXc+zYsbz11ltdpwAAADywDMAAAAC7zHjVz8RoNU3dpDc1k/mnP/b2FXBSVv38Vy9f6DoRbmt2djY3btzIiRMnuk4BAAB4YBmAAQAAdqH/7Gufu3kFXDeZffKZVBMTadY3UlVlRuWebA3rrhPhthYWFnL06NGsra11nQIAAPBAMgADAADsQjNjU+mP1tI0dfp7ZjP31LNZv3Lx5ruAy37+xsuvdZ0ItzU/P5+33norL7/8ctcpAAAADyQDMAAAwC71n37myQyHw9TNMLNPHUrZH0uzsZGq30vdm02TUdeJ8EWKosj8/HyOHDmSjY2NrnMAAAAeOAZgAACAXerA1N6UoxtpmjpjswuZf+pQNm5dAVf5Gy+d6joRbmv//v25fPlyTp3yZxQAAOCDMgADAADsYn/lK1YyHA7TDOvMPvVsirLMcGs7/X6Zzd582rRdJ8IXKYoie/fuzZEjR7K9vd11DgAAwAPFAAwAALCLPTa3kKLdSlM3GZtfyOwTz2T98oUUxc0r4L954mTXiXBbi4uLOX/+fE6fPt11CgAAwAPFAAwAALDL/YefmE3TNGmaUeaefi5FUWQ0GKSsylxv57vOg9vq9XqZnp7O4cOHU9d11zkAAAAPDAMwAADALvf83EoyGmTYNJnct5jZx5/OxuULKXu9VP0q/5+TL3WdeN9NTk5mcnKy6ww+oKWlpbz55ps5c+ZM1ykAAAAPDAMwAADAQ+D/8OxYmmGdetRk7unn0rZt2rpO2atypd3Xdd59t7m5mc3Nza4z+ICqqsrY2FiOHDmS4XDYdQ4AAMADwQAMAADwEPiaxSfTDm8+BnrywHJmH3syG1cuplf1UlVV/rtXdv8VMA+m5eXlnD17NmfPnu06BQAA4IFgAAYAAHhIfN9TbYbNIE0zzOzTH8uoqVM0w5RllTfr3X8FzIOp3++n1+vlyJEjGY1GXecAAADseAZgAACAh8RvPvhsRsMmzbDJ1OJKZlYez/rlCynLXqp+mZ981RUwO9PKykpeffXVvPHGG12nAAAA7HgGYAAAgIfIdx7czLCuMxyNMv/s8xnWg7TDJmXZz6vb813nwW2Nj4+nbdscP348bdt2nQMAALCjGYABAAAeIr/nqU9mOBqmaepMLh/MzMoj2bxyKb1eL72qyj86e7LrRLitgwcP5tSpUzl//nzXKQAAADuaARgAAOAh8+8euJG6btKOisw/83yara0Uo1H6ZZUXN2a7zoPbmpiYyGAwyPHjx7tOAQAA2NEMwAAAAA+Z737uq9KORqmbJlMHH8/00nI2rl5KryxTVlV+7s1Xuk6E21pZWcnJkydz6dKlrlMAAAB2LAMwAADAQ+g3LlxNM2zStsm+Q59Is7WZoh2lLMv82vU9XefBbU1PT2dzczMvvvhi1ykAAAA7lgEYAADgIfQnnv+ajJphmqbJ1MHHMrVwIFvXLqcsy/SqKv/y4pmuE+G2FhcX8+KLL+bq1atdpwAAAOxIBmAAAICH1Gf3XkwzqpOyl33PfUUGN26kSJuqLPMvro13nQe3NTs7mxs3buTkyZNdpwAAAOxIBmAAAICH1J//5NdnNBylqYeZOfh4Jhf2Z+vatZtXwOVYjlw533XiPdO2bdq27TqDe2T//v05duxYVldXu04BAADYcQzAAAAAD7HnJs6nqZuMqir7Dn0i22urKVKkX5X5p5dHXefBbc3Pz2d1dTUvv/xy1ykAAAA7jgEYAADgIfZ/+sw3ZtgO09R19jz+ZCbm9mVr9Wp6ZS+93nhOrl7qOhFua35+PkePHs36+nrXKQAAADuKARgAAOAh92h1MU0zSqqxLDz3iWyvXkuvKFL1q/yD803XeXBbCwsLuXr1ak6dOtV1CgAAwI5iAAYAAHjI/V+/9uszHA7TNHX2PPpkJmbns7361s13AffGcm7jWteJ8EWKosjs7GwOHz6cra2trnMAAAB2DAMwAAAAWehdyHA4TG98PPue/Xg237qaXm5eAf/3r3nELjvTgQMHcvHixZw+fbrrFAAAgB3DAAwAAED+2jd8XZqmSdMMs+fRpzM+M5vBjes33wVcTuTy9o2uE+GLFEWRmZmZfO5zn8tgMOg6BwAAYEcwAAMAAJAk2ZvLaYZNqsnJm1fAV6+k1+ulqvr5r1/1GGh2psXFxZw/fz6vvvpq1ykAAAA7ggEYAACAJMl//o1fnWEzTD0cZu8TT6U/vSeDtespqzJtbzKrg82uE+GLlGWZiYmJHD58OE3TdJ0DAADQOQMwAAAASZIqvUzkapp6kHJyT+affi6bVy+nKIr0qyr/71cudp0It7W8vJw33ngjr732WtcpAAAAnTMAAwAAcMuPfu0nMxy2qesme598Jv2JqdQbN1KWZYa96WwN664T4YtUVZWqqnL48OGMRqOucwAAADplAAYAAOCWiaqfsdFqmmaY/sxs5g49l83LF9MreqmqMv/ly2e7ToTbWllZydmzZ/P66693nQIAANApAzAAAADv8SNfeyjDYZOmqTP7+DMpxybSbG2kLKvUxd40cWHJzjM2NpaiKHL06NG0bdt1DgAAQGcMwAAAALzHzNhUytGNNPUw47P7MvfkM9m8fDFl2UtZVfkvX3ql60S4reXl5Zw+fTpvvvlm1ykAAACdMQADAADwRf7Tzzya5p0r4Kc/lqKqMtzaTNXrZbOYSxsXluw8ExMTGQ6HOX78eNcpAAAAnTEAAwAA8EWWpubSazdSN8NMzO/P3BPPZOPSxfTK8uYV8MmTXSd+IG3beizwQ2J5eTknT57MxYsXu04BAADohAEYAACA2/orn1jKcNikHtaZe/pjKcpeRoObV8Dr7b6u8+C2pqamsr297QoYAAB4aBmAAQAAuK3H5xaS4XaGzTDjCwey97Gns3HpYsqyTK/s5W+dfKnrRLitpaWlvPTSS7l69WrXKQAAAB85AzAAAAB39MOfmEnTNBkOh5l/5tmkKDKqB6mqft5yBcwONTMzk42Njbz44otdpwAAAHzkDMAAAADc0cfnD6YdbqdpmkzuX87eR5/M+uUL6fWK9HpV/ptXXAGzMx04cCDHjx/P6upq1ykAAAAfKQMwAAAAd/UDT/fTNE3q0TBzz3ws7XCYUdOk3y9zsXYFzM40NzeXtbW1nDhxousUAACAj5QBGAAAgLv6hpWn0g7rDIejTC2uZO+jj2fz8oX0er2UVZm/86orYHamffv25dixY1lbW+s6BQAA4CNjAAYAAOBL+p4nhhnWdZq2zdwzz2dU12mHTaqyzGvb813nwW3t27cvV69ezalTp7pOAQAA+MgYgAEAAPiSvuXRj2U4bDKq60yvPJI9Bx/NxpVL6ZVlyqrK/3T6c10nwhcpiiLz8/M5cuRINjc3u84BAAD4SBiAAQAAeF9+38HN1MMmo2Gy79DHM9zeSoaDzBSvZbD1L7vOg9vav39/Ll++nFdeeaXrFAAAgI+EARgAAID35fc99ZUZDYepR02mlxezvLiZuSv/Q5Z6h1NVZX7hDVfAJNvb23n55Ze7zrilKIrMzMzk8OHD2d7e7joHAADgvjMAAwAA8L59dvpC9m7+cp4f/tV8xaEL2d7YToqkKnu5cP1Xus67o4997GP52Mc+1nXGrre1tZUf//Efz4//+I/nxRdf7DrnlsXFxZw/fz6vvvpq1ykAAAD3nQEYAACA9+3Pf9U3ZnH0Mxk2w8wtz2RucU/WrqynLKtUZS+/cmHnjH7v9tJLL+Wll17qOmNX29jYyI//+I/n1VdfzfT0dObm5rpOuqXX62VqaiqHDx9OXddd5wAAANxXBmAAAAA+kIML/07qpkmKNiuHDmR7vU6bpKzKvHb1F7rOowNra2v50R/90Zw5cybz8/P5gR/4gSwvL3ed9R5LS0s5d+5cXnvtta5TAAAA7isDMAAAAB/I93zid2c4alI3w+w7uDd790/lxrWN9Hq9VGVy+PLprhP5CK2treXHfuzHcu7cuezbty9/5s/8mezfv7/rrC9SVVXGxsZy5MiRDIfDrnMAAADuGwMwAAAAH9jszG9I0zQpqjYrzx7I1vXtFL0iZVXlxUv/tOs8PiLXrl3LX/trfy3nz5/P4uJifvAHfzD79u3rOuuOlpeX89prr+Xs2bNdpwAAANw3BmAAAAA+sB/49HdnNBqmaZrse2Q2e/ZNZePaZspelX5Z5MTV17tO5D67evVqfvRHfzSXLl3K8vJy/vSf/tOZnZ3tOuuu+v1+yrLMkSNH0rZt1zkAAAD3hQEYAACAL8v4xFelrpv0yiIrhw5k4/rW21fAZX7t/D/uOo/76OLFi/mRH/mRXLlyJY899lh+4Ad+IHv37u06631ZXl7OmTNn8sYbb3SdAgAAcF8YgAEAAPiy/Pmv/ZNpR8M0TZ0Dj81manYy66ubKXtlxso2Z9Yudp3IfXDhwoX89b/+1zM1NZXHHnssf/JP/slMTU11nfW+jY+PZzQa5dixY66AAQCAXckADAAAwJev/3zqZpjeWO/mFfBbmyl6vfSqKv/y7N/vuo577I033siP/MiP5PLly5mbm8uf/tN/+oEaf9+xvLycU6dO5cKFC12nAAAA3HMGYAAAAL5sP/T1/36GoyZNffMKeHJmIpvXt1KWZapylAvrb3WdyD1y9uzZ/NiP/VjW19fz/PPP54/9sT+W8fHxrrO+LFNTU6nrOi+88ELXKQAAAPecARgAAIAPp/dEmqZJNV5m5dD+3Li2nl5R/P/Zu/P4uOp6/+Pvc85MZslMZp/MJGmBrqylUjbZLjsWZBP6A2RfRHZEQRRcUFFEdgEFEUS8XsSF63K9IsriigtygRYotEChLeneZs8s55zfH8mMk250SXKS9PV8PGImn2TmfGaurTfz7ufzlc9n6Zl3Hve6OwyCt956S/fee6+6urq0884764ILLpDf7/e6ra2Sy+X0xhtvaMWKFV63AgAAAACDigAYAAAAALBVrtvv07JtR2WnpPS4uALhgHo6CzItS36rrLZCl9ctYivMnz9f9913n3p7ezV9+nSdf/758vl8Xre11err69Xd3a25c+d63QoAAAAADCoCYAAAAADAVjFlqmzlVSraqgv7lZ+cUefqblmmKZ/Pp9+8+VOvW8QWeu2113TfffepUCjoAx/4gM466yxZluV1W4Mmm83qtdde0+rVq71uBQAAAAAGDQEwAAAAAGCrXbv3Z1R2bJXLfWcBB0J1KnQVZZqm/GZB3eWCp/25rivXdT3tYbR55ZVX9OCDD6pUKumDH/ygzjrrLJnm2HobIRaLqbOzU/PmzfO6FQAAAAAYNGPrNzcAAAAAgCcCPr8cJVQulxSMBpSbkFLHqv4pYMunX877idctYjO89NJLevjhh1UqlXTggQfqlFNOkWEYXrc1JFKplObMmaOOjg6vWwEAAACAQUEADAAAAAAYFFftfX3fWcClktLjE/LV+VToLsn0maozulSyy163iE3w97//XQ8//LCampp06KGH6qSTThqz4a8kJRIJtbW1MQUMAAAAYMwgAAYAAAAADIpoXVglN6py2VY4VqfGHZLqWN0lyzRlWZYef4OzgEe6v/71r/rRj34kx3E0adIkHX/88WM6/JUkwzCUSCQ0e/ZsdXV1ed0OAAAAAGw1AmAAAAAAwKC5ZMb1KtlllUuOstsnZFmWSr1lWT5LltkmV5zDO1L9+c9/1mOPPSbHcTRz5kwde+yxXrc0bFKplFauXKk333zT61YAAAAAYKsRAAMAAAAABk0m3KCyE1apXFR9PKTGHVJqX9kp07Tksyz9eO7jXreI9Xjqqaf0k5/0ndN8wgkn6EMf+pDHHQ0vwzAUi8U0e/Zs9fb2et0OAAAAAGwVAmAAAAAAwKA6b4/PynZslcu2stslZJqWSkVblmXJcld43R7W8vvf/16//OUvJUknnXSSDjnkEI878kYmk9GyZcv09ttve90KAAAAAGwVAmAAAAAAwKAaF0nJtv0ql4uqTwaV3S6h9hV9U8CWz6efvvFLr1tEv1//+tf65S9/KcMwdNppp+mggw7yuiXPmKap+vp6zZ49W6VSyet2AAAAAGCLEQADAAAAAAbd/5t+rcplW7ZjKzshKcMwZJds+SxDct7zur1tnuu6evzxx/Xb3/5WhmHoox/9qPbdd1+v2/JcY2OjWltbtWDBAq9bAQAAAIAtRgAMAAAAABh0UxuaZDt+lYplRZNhpcfFBkwB/3zek163uM1yXVe/+MUv9I9//EM+n0/nnnuu9t57b6/bGhEsy1IgENDs2bNVLpe9bgcAAAAAtggBMAAAAABgSBy905WynbLKjq3G7VNybFd22ZXPtFQuv+V1e9sk13X1wx/+UE8//bSSyaTOO+88TZ8+3eu2RpTGxkYtWrRICxcu9LoVAAAAANgiBMAAAAAAgCExIzNBtm2qXC6pIV2vVHNMHSs7ZZqmLMunX731rNctblNc19V//ud/6h//+Ifq6up0/PHHa9ddd/W6rRHH7/fLsizNnj1bjuN43Q4AAAAAbDYCYAAAAADAkDl48sdVLtmyXUf5SWmVy44c25Xls9RbmOt1e9uMcrmsBx98UP/85z9VV1enCy+8UFOnTvW6rRErn89rwYIFWrRokdetAAAAAMBmIwAGAAAAAAyZA/O7yXFc2XZZDdmoUvmY2ld2yTIt+SxLTy78q9ctjnnlclkPPfSQXnrpJQWDQV122WWaMmWK122NaHV1dTIMQ3PmzJHrul63AwAAAACbhQAYAAAAADCkZow/R+WyLdexlZ+YVrlgy3X6poDbOl/2ur0xrVgs6v7779fs2bMVDod16aWXavvtt/e6rVEhn8/r7bffVmtrq9etAAAAAMBmIQAGAAAAAAypmdvvLdu2VS6XFMtHlMhF/z0F7LP07KIXvW5xTCoUCrrvvvs0d+5cRaNRXXHFFdpuu+28bmvUCAaDKpfLevXVV71uBQAAAAA2CwEwAAAAAGDI7Zg7RWXbluM6yk9Oq9hbkutKPsvSso6/e93emNPT06N77rlH8+bNU0NDgy6//HI1Nzd73daok8vlNG/ePC1btszrVgAAAABgkxEAAwAAAACG3MlTDpZtO7JLZcVzUcUyEXWs7JZhWvJbpv629DWvWxwzOjs79aMf/UjvvPOOEomEPvGJTyifz3vd1qhUX1+vQqGguXPnet0KAAAAAGwyAmAAAAAAwLAYl/qwynZZMhw1Tcmq0FOUJJmWpYWr/uhxd2NDe3u77rrrLr3wwgvabbfd9IlPfEKZTMbrtka1bDaruXPnatWqVV63AgAAAACbhAAYAAAAADAszt7lmL4p4LKtRD6qhlS9Olf1yGdZ8vlMvbjiLa9bHNXa2tp09913a8mSJcpms5o1a5aSyaTXbY16DQ0N6urq0uuvv+51KwAAAACwSQiAAQAAAADDJhM/VCW7LMN01TQlrd7OgiRDlmnpjeW/97q9UWvVqlW68847tWTJEjU2NuqKK65QPB73uq0xI51O69VXX1VbW5vXrQAAAADA+yIABgAAAAAMm49PmyXbtlUu20o0xRRNhtW5pkemZckypddXLfK6xVFn2bJluuOOO7RixQq1tLToqquuUiwW87qtMSWRSKitrU3z5s3zuhUAAAAAeF8EwAAAAACAYRUN7yfHLsuypNzkjHo6emTIkM/v04tL/9fr9kaVpUuX6q677tLq1avV0tKiyy67TPX19V63NSalUinNmTNHXV1dXrcCAAAAABtFAAwAAAAAGFZXzjhLdrmsUtlWuqVBkVhYXW098hmm/Ka0oGOZ1y2OCosWLdIdd9yhtrY2TZw4UVdeeSXh7xBKJpNatWqV5s+f73UrAAAAALBRBMAAAAAAgGFnBXeXbZdk+QzlJ6XVvaZHhmHJ8vn0j0W/HPTrJZNJJZPJQX9cryxcuFB33323Ojs7NWnSJF1yySUKBoNetzWmGYaheDyul19+WT09PV63AwAAAAAbRAAMAAAAABh21+59sRzHVcm2lRofUzgWVFdH5SxgR61dqwf1eqtWrdKqVasG9TG98tZbb+mRRx5RV1eXdtllF1166aUKBAJet7VNyGQyWrFihd5++22vWwEAAACADSIABgAAAAB4w7+D7HJZ/oClpkkZda3uliVTPp9Pf3j3ca+7G5HeeOMN3Xvvveru7ta+++6rj33sY/L7/V63tc0wDEORSEQvvfSSisWi1+0AAAAAwHoRAAMAAAAAPHHdPtfItssqlcpKbRdXKBpQd2evLNOS37S1qtDpdYsjyquvvqpvfetb6u3t1cSJE3XaaafJ5/N53dY2p7GxUUuWLNGCBQu8bgUAAAAA1osAGAAAAADgGddq6Z8C9ik3MaPO1d0yDMlnWXryrZ963d6IMWfOHH3nO99RqVTS3nvvrXPOOUeWZXnd1jbJNE2Fw2G99NJLKpfLXrcDAAAAAOsgAAYAAAAAeOa6/a5T2XZkl8tq3C6uYLhOvd1FmZYlv1lQR7nH6xY998ILL1TD3wMOOEBnnXWWTJNf573U2Nio9957T++8847XrQAAAADAOviNEQAAAADgGVOmbDOtUrkkf9in3IS0OlZ2yzJMWaalX8/btqeAn3/+eX3ve9+Tbds66KCDdOqpp8owDK/b2ub5fD75/X7Nnj1btm173Q4AAAAADEAADAAAAADw1LX7fF62batcspXeLqZA0K/e7pIsy1Kd2a1eu+R1i574y1/+oocffli2bevII4/UKaecQvg7guRyOS1cuFCLFi3yuhUAAAAAGIAAGAAAAADgqYDPL9tIqGyXFYoE1DghpY5VXTJNU6Zp6Rdv/MTrFofdn/70Jz366KNyHEdHHnmkjj/+eK9bwlrq6upkmqZeeeUVua7rdTsAAAAAUEUADAAAAADw3FV7f05luyzbKSuzfVK+OkvFnpJMy5JldKgsx+sWh80zzzxTDX9PPPFEnXDCCV63hA3I5XJ6++239d5773ndCgAAAABUEQADAAAAADwXrQvLdiMqlcoKx+qU3T6pjlXdskxTlmXpZ6//zOsWh8Xvfvc7Pfnkk0okEpo1a5aOOOIIr1vCRgQCAdm2rTlz5jAFDAAAAGDEIAAGAAAAAIwIF824vv8s4JIat0/KtEyVesvyWZYsd5Vcje2A7Re/+IX++7//Wx0dHTr22GN1yCGHeN0SNkEul9Nbb72lZcuWed0KAAAAAEgiAAYAAAAAjBDZcFxlNyi77CiSCCmzXULtq7plmqZ8lqWfvfErr1scEq7r6qc//al++9vfyjRNnXnmmdp33329bgubKBwOq1Ao6NVXX/W6FQAAAACQRAAMAAAAABhBztntsyrbZZXLJeV2SMk0DZULtizLlOxWr9sbdK7r6ic/+Ymefvppmaaps846S/vss4/XbWEz5XI5vfHGG1q5cqXXrQAAAAAAATAAAAAAYOQYH8+o7PhVdmzVp8JKt8TVvqpThmnJ8ln62bz/9brFQeM4jv7zP/9Tzz77rCzL0gUXXKC9997b67awBSKRiLq6uvT666973QoAAAAAEAADAAAAAEaWU3a7WuVSWY5dVm5CUq5ryCk5sixTTnnhFj2m67py3ZFzhrDjOPrBD36g5557Tj6fTx/72Mc0ffp0r9vCVmhsbNQrr7yi1atXe90KAAAAgG0cATAAAAAAYESZmhgn27FUtsuKZCJKN8fUvqpLlmnJ7zP1yzef8rrFrVIul/Xd735Xf/vb3+T3+3XJJZdo2rRpXreFrRSLxdTZ2al58+Z53QoAAACAbRwBMAAAAABgxDl66hUql23Z5bJyk1JybFd22ZFlWSoWR2/AVgl//+///k+hUEhXXnmldtxxR6/bwiBJpVKaM2eOOjo6vG4FAAAAwDaMABgAAAAAMOLMaJws25Zsu6xYJqJUU4PaV3ZVzwL+3wV/8rrFzVYsFvXYY4/ppZdeUjgc1hVXXKEJEyZ43RYGUSKR0Jo1azR//nyvWwEAAACwDSMABgAAAACMSAdOvKhvCti1lZuQll1y5NquLNNSd8+rXre3WXp7e3X33Xfrz3/+s3bddVddddVV2n777b1uC4PMMAwlEgnNnj1b3d3dXrcDAAAAYBtFAAwAAAAAGJEObt5NjuPKLtuK5yJK5hvUsbJLpmXJMi09tfCfXre4Sbq7u3X33Xdr/vz5ikajOuGEE9TS0uJ1Wxgi6XRaK1as0Jtvvul1KwAAAAC2UQTAAAAAAIARa/q4M1Uul+Q4jhonplQqlCXXleUztarzBa/be1+V8PfNN99ULBbTVVddpebmZq/bwhAyDEOxWEyzZ89WoVDwuh0AAAAA2yACYAAAAADAiPXhHT4o23ZVtstK5qOKZaNqX9ElwzJlmYaea33F6xY3qKOjQ7fffrvefvttpVIpfepTn1I+n/e6LQyDTCajJUuW6O233/a6FQAAAADbIAJgAAAAAMCINqnxZJXLZblylZ+cUrG3JMM1ZPksLVzzJ6/bW6/29nbdcccdWrRokRobG/WpT31KmUzG67YwTEzTVCQS0csvv6xSqeR1OwAAAAC2MQTAAAAANZYsWaKuri6v2wAA1Dh16mGyHVflclmJfINimYg6V3XJMi35TFP/t2K+1y0OsGrVKt1yyy167733lMvl9MlPflLJZNLrtjDMGhsb1draqnfeecfrVgAAAABsY3xeNwAAADBS9Pb26tRTT61+XVdXp0gkomg0Wv2ofJ1Op5VKpdapx2Ix+f1+D58FAIxNTekPaemqJ+ULWMpPyui1v76tSLJels+necuf0gfSk7xuUZK0YsUK3XHHHVq5cqVaWlp05ZVXKhqNet0WPGBZlurq6vTyyy9rhx12kGVZXrcEAAAAYBtBAAwAANCvp6dHyWRSHR0dKpVKKhaLWrlypVauXLlZjxMOhweExtFoVA0NDWpoaKjerv1cuR0KhYbomQHA6HfeTsfpxj/+RiXbVrKpQdFkWF2ruxVOhuQzTb22apF2SrZ42uOSJUt05513as2aNRo/fryuvPJK1dfXe9oTvJXL5bRw4UItXLhQ22+/vdftAAAAANhGEAADAAD0SyQSevzxxyX1TQO3t7ervb1dnZ2d1dsdHR3q6Oio3q793NnZqa6uLnV3d6u7u1tLlizZrOv7/X5FIhE1NDRo6tSp6ujo2GBYvHbdNDnZA8DYl2w4SG3df5E/4FPT5Kxe//sC1SdDsnymZi/9X+2UvNCz3hYvXqyf/exnamtr08SJE3X55ZcrGAx61g9GBr/fL9M0NXv2bI0fP57/vQYAAAAwLAiAAQAA1iMYDCoYDCqbzW72fQuFQjUorv2oTBOv73vt7e0qlUpavXq1Vq9eLb/fr3nz5q3z2K7rrveadXV160wdrx0cV8Ll2u+n0+nNfn4A4JVLpp+mr/7pj7LLZaXHxbT49bC61/QqFAvKMhwt6Fim7aOb//f21nr33Xd11113qaurS/vvv79OOeUU1dXVDXsfGJny+bwWLFigxYsXa9y4cV63AwAAAGAbQAAMAAAwyAKBgAKBwGaHq11dXdVAuLOzU21tbWpra1tn0rh2Grm9vV29vb2btK56feFxXV3dOhPFtbfj8bjq6+sH1GOxmCKRyGa/LgAwGMKhPVQovqhgwK+myRm98Y93VB8PyWcZ+sfCX2j7nT82rP288847uuuuu9Td3a2dd96Z8BfrCAQCcl1Xr776qlpaWmQYhtctAQAAABjjCIABAABGiPr6etXX1yuXy232fStTxytXrtSKFSvWO2G89u22tjYVi0WtWLFCK1asWO/j5nI5tba2rvd765s6XnvCuKGhQel0WqlUSg0NDYrFYvL7/Zv9/ACg4qo9P6av/elile2yMi1xLXp9mbrbehWMBmQ5RbV2r1I+nFznfhvaoLA15s2bp3vuuUe9vb2aNm2aLrzwQv6Ow3o1NTXpzTff1JIlS5TP571uBwAAAMAYRwAMAAAwBtROHU+dOnWT77e+6eLa267ravHixevUi8Xi+4bHGxIKhdTQ0FBdSb32R2XKuPK5Uquvr9/clwXAGGXU7ahSeb6CAZ+aJqc1/18LFY4FZVmW/rDgv3XqzucPeQ+vv/667r33XhUKBe25554677zzZFnWkF8Xo1MwGFSpVNKrr75KAAwAAABgyBEAAwAAbMMqk7qbqzJxXDtZvClfr1q1Sj09Perp6dGSJUs265o777yz5s2bN2BFdaX/TCZTnTJeexo5Ho8zkQeMMZ/d50p99U8XybZNpcfF9N685eppLygQ8ctnlbSq0KlkYOhW1c+ZM0f33XefSqWS9t57b5177rkyTXPIroexIZfLad68eZo2bZoymYzX7QAAAAAYwwiAAQAAsNm29Jxjaf3h8dq3V65cqeXLl1drbW1t8vl8G5063th618pZx7XB8PqC5LVr6XSasxqBEcr1TZBdfkd1gZByE1N66/8WK9SQkM+09OSbP9apO583JNd9+eWXdf/996tcLuuAAw7QGWecwd8T2CT19fVqbW3V3LlzCYABAAAADCkCYAAAAAyrLQ2Pu7u711lFXfvR1tZW/Vz7M93d3e+7rnpD4XElOF77I5/Py7Ks9X6vsr6aQAgYWtd98Gp9/U+XybHLyoxLqPX15ertLKqu3i9fuVcd5R5FfaFBveY///lPPfjgg3IcRwcffLBOO+00/qxjs2SzWc2dO1e77LKLksl1z6oGAAAAgMFAAAwAAIBRIRwOKxwOK5fLbfZ9C4XCgPC4dsJ4fWcfd3R0aM2aNRsMjnfccUe99tprG7ye67oDwuPKVPHGbmcyGWUyGdXV1W328wO2RaZM2WZepfIyBcMB5SalteDl95SJJOTz+fXrN36iU3c+a9Cu9/e//13f+9735DiOjjzySJ188smD9tjYdjQ0NGjp0qWaN2+e9tlnH6/bAQAAADBGEQADAABgzAsEAtWAdXN0dnYOmC6ufJTLZc2YMWODk8i9vb3vO3W8sV5rp4nXN2G89u1YLKZIZOjOOwVGqs/s91l948+Xq1y2lB0f13vzlqvQWZA/7Jev3K1eu6SgtfVngP/hD3/Qc889J8dxdOyxx+rYY48dhO6xrUqn03rllVe04447KhaLed0OAAAAgDGIABgAAADYgEgkokgkoqamps2+b3t7+/tOGa99e/Xq1ert7VVvb6+WLVu2ydcKBoPq6elZ78rqtaeM0+n0OoEyU8cYrfyGT7aZkm2vUSASUm5CSgtfW6p0JCCfz6+fv/FjnbrT6ZL6tghsid/97nf66U9/KsuydNppp+mQQw4ZzKeAbVAikdC8efM0f/58zZgxw+t2AAAAAIxBBMAAAADAEKgErJvDdd0Bk8QdHR0Dpo/Xvt3R0aGuri6tXLlSktaZOt7Q2cZrC4fDAwLhtSePa2u136uvr9+8FwUYAlftdZ2++Y+r5bNLym6fUOubK1XoLskfNOUrd6gsR6b6zhHfXE888YQef/xxGYahk046ifAXgyaRSGjOnDnacccd+bsUAAAAwKAjAAYAAABGCMMwqmHruHHjNuu+vb296wTE6wuPaz+3tbWpq6tL3d3d6u7u1pIlSwY85vsFyD6fb51geOLEiSoUCgPqa/9MLBaTaZqb/foA6xOtC6vsNsgudyvUEFDjDkktfn25Ui0Nsiyffjb3x5o15f9t9uPWhr+nnnoq4S8GVSqV0vz58zV//nztvvvuXrcDAAAAYIwhAAYAAADGgGAwqGAwqMbGxs2+b6FQWO95xu3t7VqxYoWWLVu23rOOS6WSVq5cWZ1AlqSuri49//zz61xj7TC59qzjzfnIZrOb/+JgzLtkxnX6zgufka/sU3a7hJa8tVLlnrKsOlOWvUaOnM16vJ///Of63//9X5mmqTPPPFP777//EHWObVXlH/zMnj1bU6dOVTAY9LolAAAAAGMIATAAAACwjQsEAspkMspkMpt1v66urnUmjguFgvbff//1TiNXPnp6elQoFLR8+XItX778fa9TGx4HAoF1porf73Y8Hlc0Gt3s1wWjRybcINsNqVwuqj4RVHZ8UkveWqFkU4Msy9Ljb/xqkx7HdV39+Mc/1lNPPSXTNHXOOedo3333HeLusa3KZDKaN2+e3nrrLe28885etwMAAABgDCEABgAAALBF6uvrVV9fr3w+v9n3LRQKamtr2+CE8drTxu3t7Vq9erUKhYKWLVumZcuWbdJ1PvCBD+iFF16Q1BceR6PRdc4yXvvrbDarTCZTDY/r6uo2+/lh+J37gev0gxc/L6tsq3GHpJYuWCm7aMvyW7ILS9/3/q7r6pFHHtFf/vIXWZalj33sY9pjjz2GoXNsqwzDUDQa1csvv6xJkybxdw0AAACAQUMADAAAAGDYBQIBZbNZZbPZzZp86+jo0Jo1a9Y553hDt4PBoAKBgAqFggqFgnp7ezdp6rhWKBRa71nG8Xi8Wl/7o6GhQZFIZHNfFmyFcZGUyqqTzy6rPhlUdruEli5YpWS+7yzgD154qJ77ztPrva/jOHr44Yf13HPPyefz6aKLLuJcVgyLbDart99+WwsWLNCUKVO8bgcAAADAGEEADAAAAGDUiEajW7TOube3d70hce3H+uodHR3q6elRT0+PWltbN+ualmUpHo9XJ4vj8bgmTZqkQqGwToi8dqBsWdZmP0dIp0z7tH768ldl+Wxlt0tq2YLVsku2LMtUMt653vvYtq0HHnhA//rXv1RXV6dLL72UdbwYNpZlKRQK6eWXX9aECRPk8/E2DQAAAICtx28WAAAAAMa8YDCoYDCoxsbGzb5vb2/vOuuoa28vX768usa6NkguFotauXKlVq5cWT3HuKOjQ//6178GnGu8PoFAYMC08dqfN/S9TCYjwzC26DUaC6Y2NMlxLNklWw2ZsFItMa1Y1KZEPirL59Pe5x884OfL5bJ+8pOf6F//+peCwaCuuOIKTZ482Zvmsc1qbGzUO++8o3fffVcTJkzwuh0AAAAAY4Dhvt87DwAAAACAzdbd3b3ORHFvb6+WLVumNWvWrHcKua2tTV1dXRt93I39CldXV7feldSVSeTa22uvsB4rwfELK97SE3NvVTAUUufyHs35wzzFs1HJkAqlok6aeqFM01SxWNS3vvUtvfrqq9p555113HHHEb7BM++++66ampp03HHHyTRNr9sBAAAAMMoRAAMAAADACFOZOl57ynhj5x6vXr1a5XJ5o4+79q9/u+22m15++WVJfVPHtdPEm3K7sbFRDQ0NQ/Y6bKmv/PEyBQKm6nx1mvvcO1qzpF2xXFSlYkl1/qk6omkf3XvvvXrttdcUDod11VVXafvtt/e6bWzDisWiFi9erOOPP17jx4/3uh0AAAAAoxwBMAAAAACMER0dHWpvb69OGFc+V2pr1qwZ8P2mpiY999xz6unp2exrVX6VDAaD1cni2onjjd2Ox+NbdJbzpvpz6xz98c1vKRgKqn1pt159Zr6SPp/sbFiFclFv/ny13nzzTcViMX3yk59Uc3PzkPUCbKoFCxZowoQJmjlz5piZyAcAAADgDQJgAAAAANjGFQqF6kTx2iFxbZBc+1EJlLeE67oyTXOdUDgWi1WnH2vrlZXVlZrf73/fa3zlj5cqELC0ePZyffuSn8gpO9otEdWnd5yosqS3C2U1nXSKcrvtvkXPARhsvb29Wrp0qU444QT+UQIAAACArUIADAAAAADYYr29vRtcS73218uWLauegVwoFNb7eFOmTNHrr7++0Wuub1117UdDQ4NW5QzddOEntGpx+4D7Tk/GdP20qXIdV67ryLZdSa4Uiapur30V2OcAielLeOStt97SzjvvrMMPP9zrVgAAAACMYgTAAAAAAIBh19PTM2C6uPK5u7tby5cvX6demTju7OysPsaGfp2t/Hytykpdy7L0jb2maYf6oOT2PYbrOnIcR64rOY4tx3HlmJac5hb5Dj5S9U3NMk1zyF4LoKKrq0urVq3SRz7yETU2NnrdDgAAAIBRigAYAAAAADCqVKaO1/5455139JnPfEalUqn6s5Xg1zQM+f1+BYJBHTyuSQdFArIkhSyfonU+hfoD3r5A2JUrV67tyHYcOf0B8dKyq7+WDb0XDCscDqu+vr76eUO3Y7EY57lis8yfP1/Tp0/XwQcf7HUrAAAAAEYpAmAAAAAAwKh32GGH6emnnx5QqwSvfr9f4XBYqVRKTU1NOmJcXqeUOrSit6hFXd1aXSyqp2zLdl2FLEsRv0/1liWr//6u68h1XTm207c2un99dGfZ0b86evQ/K9aosJFfrf1+f/UM440Fx7W1aDQqy7KG7gXDiNXR0aH29nadfPLJSqVSXrcDAAAAYBQiAAYAAAAAjFqPPfaYTjvttAHroGvXPQcCASUSCeVyOY0bN07N2YxusTsUMFy5jitHrjqLZbUVi1pdKKq1p1et3T3qLJVVdh1Zhql6v6WIz1LQ7Atkq1PCrtO3Ltpx5Dq2iq602DX02+6y3mnvUFdX1wbXVFds7PuVMLj2IxKJVCeLA4FANTiu1Ovr6+X3+wfhlYWX5s2bp3322Uf77bef160AAAAAGIUIgAEAAAAAo05XV5cmTpyopUuXDqgbhiGjf91zNBpVNpvtC36bmxXp7dGdM3aUsXqlVOiViiWpZEu2Lde1+8JYx1Vv2daaYlGrCkUt6ynove4etZVKKtqOJKm+f0I47LNkSJLryun/cB1XjmNLriPHlRSPy9ltD3VuP0ndPT3q6upSV1eXuru7q7drv+7u7lZnZ6fa2to2+vwbGho2+DM+n0+RSGTARPH6po5rfyYcDisWi3HW8QixZs0a9fb2atasWYrFYl63AwAAAGCUIQAGAAAAAIwq559/vh566KEBtcrUr8/nUygUUiqVUnNzs8aPH69UKqVf/epXKpfLWrBgwb9XK89/Q/rjb6V335F6uqViQSqV5dq25NhyHacv3JXUUShpZaEvFF7Y1a1VhaK6SmWVXVdBq29COOLzy2dKriS5Tn8Y7MpR36Sw69iSPyDf1J0VPOwoGeH6DT7HUqlUDYc7OzsHhMNdXV3q6elRR0eHOjs7q/XK7c1VeVvANM11Jo0rQXElLK6dNK79GZ/Pt9nXxcbNmzdPBxxwgPbaay+vWwEAAAAwyhAAAwAAAABGhRdffFF77bWXyuVytVYJfg3DUDAYVENDg3K5nMaPH69cLqdZs2bpkEMO0fbbby9JAwPgta1eKT37O+m1l6SODqlY7JsStiuhsFNd/9xdtrWqsJG10b7+tdH913Jcty8Udt3+MNiR7dhyTEu+fLMCh39IvqZxW/0aua47ICyuDYhrJ45rv67crn1dN+d6khQKhbTzzjtr+fLl6w2J1/c5HA4rGAxu9XMeq1auXCnXdXXSSScpGo163Q4AAACAUYQAGAAAAAAwojmOo1133VWvvfbagHol/K2rq1MkElEqlVJLS4vGjRunlpYW3XjjjZIk27Y3LQBeW7ksvfB36c/PSKtXSL09fYFwuT8Qth05cmW4rkq2qzXFglYVilrRW9TCri61FcvqsctyJEUsS/V1faujTRmSXDmO5MrpC4PtvjOFXdeVEYnKv8eeCux3sNT/HIdDsVhc73rqjdU6OzvV3t4ux3E0depUzZ07d7Ov6/f7q4FxPB5XPB5fZwK5sqq6cjsajY75qWPXdTVv3jwdeuihmj59utftAAAAABhFCIABAAAAACPWzTffrM985jMDapXg17IshUIhxeNx5fN5jR8/XslkUtdee60mTJhQ/fktDoDX58150jO/kRa/K3V1SaWSVCrVrI3um/Rde230oq5urexfG227rgKWqYjPp3qfT37TkOtKrvrvaztyJdmO07c22lcn3+SpCh42U8YInAS1bXujk8Vr36792rbtLb5u7UrqtVdUV9ZWr+97dXV1g/jsh9by5ctlWZZmzZqlUCjkdTsAAAAARgkCYAAAAADAiNPa2qopU6aos7OzWqtd9xwIBBSNRpXNZjVu3Dg1NzdLkr797W+vMxk6qAHw2lavlJ59Unrt5f610YW+ULhsr7U2Wuq1y1pdKGl1oaglPT16r7tXHaWyCo4tU4bqfZaifp9ClbXRNRPCfaujnb5V0oZkpLIK/sfh8k2eOnjPxQO1U8drn3VcmTquvV35WLNmzYDH2dhbG3V1dSoUCtWvKxPHa08Zb+x2fX29GhoaBve/O5vAdV3Nnz9fRx55pHbZZZdhvTYAAACA0YsAGAAAAAAwohx++OF66qmnBtQq4a/f71c4HFY6nVZTU5PGjRsny7KUy+V00003yTTNdR5vSAPgtZXL0gt/k/7yjLRipdTT3VcrV6aEXTlyZDhSyXW1pvDvtdGLurq1plhSj12WK0P1PlMhy6eI35Ilo3r+sOs6ch1XjuvKcR25jqRwWHW77q7AgYdKo2jCdUuVy+VqYFw567h2urj2DOTan+vq6tpoWLwxhmGsc45xbUC8vu9Vvt6addVLlixRfX29PvKRjygQCGzx4wAAAADYdhAAAwAAAABGhCeeeELHHHOMHMep1irBr2maCoVCisViamxs1Pjx49XY2Kh//OMfmjlzpr7yla+sN/yVhjkAXp+33pCe+a307oK+QLhYWRtd7h/z7Qt1HUldJVuregtaVSxqUVePVvQU1FUuq+Q48luGIj6/IpZPdda/A+G+84Qdua7kOLYcx5UsS77tJihw2FEy09nhfb4j3NoB8dohcuX22j9TKpU2+rgbe3slEAgMCIRjsZiCweB6w+Lar4PBoBzH0fz583XMMcdo6tTRPfENAAAAYHgQAAMAAAAAPNXT06MJEyZoyZIlA+qGYcgwDPn9fjU0NCidTqu5uVnjxo3T6tWr9cILL+jCCy/UddddVw2K18fzAHhtq1dKf3pKmvN/UlubVCz2TwmX+6aE3b7pXkNST3kja6Ndqd7vV73PVL3PJ8mV67hy5cpx3OraaLmObElWLCn/Pvup7gN7SRt5vbB+lXXVa08ar++M49pae3v7gH/UIEnxeFyrV6/epOv6/X4FAgE1NDRohx12UCKRUDweVy6XUy6XUzwer37EYjHF43GlUqlRddYxAAAAgMFFAAwAAAAA8MxFF12k+++/f0CtEuZalqVwOKxEIqHm5ma1tLQomUzqmWeeUU9Pjy6//HJdffXV73uNERcAr80pS//6h/SXp6Xly6VCj1SsrI12JMf599pox1F7qaTVxaKW9xS1uLtbq4tF9ZZsleUqZFmq9/kU8VmyDENufyjsuG7/WcKOHFdyHUdGICD/bh9Q3YGHyAiGvH4VxizHcdaZMu7t7VVbW9v7TiHbtj3gcXw+3wYn3aWBU8jRaLQaFicSiQEf66tV6uFweEhfDwAAAABDjwAYAAAAADDsZs+erT333FPFYrFaqwS/hmEoGAyqoaFB2WxW48ePVy6XU0tLi370ox9phx120JFHHqlPfOITm3StER8Ar09lbfQ7b0vdXX0TwsWyXKdmbXT/pG9nydbqQt/a6MVdPVrevza67DryGaYifp/CPkvB/uDQcVxJjhzb7Q+IbdmOK5mmzKYWBQ77kHxNLd4+f0gaOHX81ltvKRgMascdd1R7e7vWrFmzzsfq1au1Zs0aLVu2bJ2p403huq6SyaS6u7vXO2VcCYnX95FOp+X3+4fgVQAAAACwuQiAAQAAAADDxnEc7bbbbnr11VcH1Cvhr9/vV319/YB1z9lsVhMnTtRNN90k0zT1hS98Qeedd94mX3NUBsBra2uT/vx76aXnpfZ2qVCUyqW+tdGOLTmuHFcy5KqnXFZbsaRVhaKW9fTqve5etZVKKtp9gWC4f0I47LNkDFgbrb510U7fmcSuIRmWX3UHHKy6ffZnbbTHSqWSFi5cqOOOO6763+eN/WwlDF69evUm3V61apXa2tokSeVy+X37Wd/bScFgcJ1geEOhcSKRUC6XUz6fVzAY3KLXBAAAAMD6EQADAAAAAIbF/fffr4svvnhAcFS77jkQCCiZTCqXy2n8+PFKp9P61Kc+pd///ve66aabZBiGbrjhBp177rmbdd0xEQCvzSlL//q79OdnpBVLpUJv39rokt0fCDtyXEeGXJVdV22FvrXRK3qLWtTVtza6p2zLdl2FTEsRv0/1/Wuj+84gdiTXkOM61bOEHdeV6urk33maAgceIqM+4vWrsM155513NH78eB1zzDEbXQW9Ndrb26vB8KpVq6pB8drB8dr17u7uTb7G2m9FhUKhAWuok8nkOquqc7lcdSV8IpFQMplUQ0PDYD99AAAAYEwgAAYAAAAADKklS5Zo8uTJ6uzsHFA3DEOGYSgQCCgSiSibzWrcuHHK5/PaY489dNlll+m2227TXXfdJcuy9PWvf12nnHLKZl9/TAbA6/PW6/1roxdI3d1Ssdg3IWzbkrvu2ui2YlGrC0W19vSqtbtHnaW+tdGWYfQHwj4FTUuSK6kvBHb7zw+unCvsGJKZySpw4GHyTZ7q8Qsw9hUKBbW2tuqEE05QS8vIW9O9Zs0atba2rrOSeu011bX1FStWbNLE8QEHHKA//elP69Rrp45rp40rt/P5fHWNdW3AHAgEhuIlAAAAAEYEAmAAAAAAwJA56qij9OSTTw6oVaZ+fT6fwuGwUqmUmpqaNH78eCUSCd18880Kh8P68pe/rAcffFCWZenWW2/VSSedtEU92Lat7bbbTlLfBOWYDYDX1tYm/eUp6cV/9t0uFKVSUXIcuWVbkuS6tuQa6nUcrSkU+tdGF/Red8/AtdF+n6KWpXqfT6763kZwHFeuHLl2JVh2+r4TCsu/yzQFDjpU8td59OTHrrfeektTp07VkUceWf2zNJq5rjtgDfWGpozr6+s1e/bsAT9TKBQ26zq1IpFIdZp4fR+VKeTaj3g8rmg0OtgvAQAAADDoCIABAAAAAIPut7/9rY4++mg5jlOtVcIq0zQVDAYVi8WUy+XU0tKixsZGnXLKKTrssMPkuq6+8IUv6OGHH1ZdXZ3uvvtuHX300VvcyzYbAK/NKUvP/136yzPS8iVST69ULvefI+z0nyNsy5Ahx3XV3n+O8KpCUQu7urWqUFRXqayS6ypkmYr4/Yr6/LJM9U0Xu31nBzuO+j87fcPDlilruwmqO/RImems16/CqNfT06MVK1boxBNPVC6X87odT3V3d29wJXXt+uq1V1m3t7dv9rUqb5/5/f51guIJEyZI0jorrGt/Jh6Pb7t/9wAAAGDYEQADAAAAAAZNT0+PJk6cqNbW1gH1yrpnv9+vaDSqVCqllpYWtbS0aNy4cfrKV74iqS+sveaaa/STn/xEfr9f3/72t3XUUUdtVU8EwBvx5lzp6Seld9/qWxtdKkmS3FJZsm25ldXRrqvusq1VhQ2tjTZV77cU8fkUsqxqWNY3FezKtR056lsf7biSGU+obt/95N99T2kMTLEOt/nz52vatGk69NBDvW5l1Orp6VlnVXXl85IlS9Ta2rrOucerVq1SsVhc57G22247vfPOO+vU137LrbKuuvZ849pzjjf0vXw+P2SvAwAAAMYmAmAAAAAAwKD49Kc/rVtuuWVAzTRNua4ry7IUCoWUSqXU2Nio8ePHK5VK6Ytf/GJ1itG2bX3yk5/U448/rlAopO9+97s66KCDtrovAuDNsGal9NRvpJf/Tyr09gXC5dK/zxJ2XDmuI8OVSrajNcW+CeEVvUUt7OpSW7GsHrss15Xq/T5F/H1ro43+dx5c1+mbFK6cIez0rY826gLy7bq76g48VEYw6O1rMAp0dXVpzZo1Oumkk5ROp71uZ5vS0dGxzsRxe3u7li9fXl1Pvb7p466urs2+VuUtu2AwuM408fqmjNd3GwAAANsmAmAAAAAAwFaZM2eOZsyYMWAyrjLxaxiG6urqFIvFlM1m1dLSolwup//4j//QWWedVf35UqmkSy+9VL/5zW8UDof10EMPaf/99x+U/giAt4JTlv75nPTcH6UVS6XeQl8obPcHwmWnb0pYrhxJHYWSVvavjV7U1a2V/WujbddVwLIU8fsU8fvkl9E3GVwNhPvCYdvt+yzTkJFrVuCwmfI1NXv9KoxI8+bN01577aUDDjjA61awCYrF4oDQeH1h8drrqiu3a1fpb64PfOADamtr22BAvPbtSrgcCAQG8dmv35o1a3TCCScoFoupqalJzc3N1Y+mpia1tLQoHo8PeR8AAABjEQEwAAAAAGCLOI6jadOm6ZVXXqnWKqGvJPl8PtXX1yuZTFbXPadSKd16663y+/3V+/T29uryyy/Xb37zGzU0NOgHP/iBZsyYMWh92ratww8/XJL0+9//ngB4a73zlvSH30lvzpN6u6RCUSqV+0Lh/rOEXfUFub2OrdW9Ja0uFLWkp0fvdfeqo1RWwbFlylC936eoz6ewr29ttKu+NdF95wlLjuv0fS1J4Yj8M/ZS4IMHsTZaUltbm7q7u3XyyScz6TnGVdZV155xvPZ66rVrS5Ys0apVq5TNZrVs2bLNvmYgEFhnRfWGVlbXft3Y2LjJf8fedttteuSRRyStuy67or6+fkA43NLSMuDr+vr6zX5uAAAA2wICYAAAAADAZnvwwQf1sY99bMCb9pXw1zTNaniQy+XU3NysxsZGfexjH9Oee+454HF6enp03nnnacWKFVqzZo0eeOABTZ8+fVB7tW1b22+/vSRpwYIFBMCDrbNd+uPvpZeel9rapUJBKpf71kY7lbXRrgy566yNXtTVrTXFUt/aaBmq91l9a6MtnyoRb3VK2O5bF233B8Kuzyf/lJ0UOORIGZGol6+AZ+bNm6f9999fe++9t9etYATq6enZ4GRxZfp47duVEHlL3y60LKs6VVyZJq58XTtt7PP5dNttt1U3R2zp9eLx+DrTw7VTxMMxyQwAADASEQADAAAAADbZ0qVLNXnyZHV0dFRrteue/X6/otGoMplMdVJrl1120dVXX73OY3V0dOjss8/WP/7xD6XTaf3oRz/SjjvuOOg9swJ6mDll6YXnpeeekZa0/vss4ZLdHwj3BbpyHTmSuoq2VhUKWlUsalFXj1b0FNRVLqvkOPJbpiI+nyJ+v+pMSa7kuK7k/nt9tOO4fQGxYchIZxQ48DD5Jk/1+lX4twXz5S56V8auH5Digzupu2rVKpXLZc2aNUvR6LYZgmNoVMLj2injtb9esmSJ3nvvvWp91apVKhQKkt4/0M3n80omk9Wvt+btyY3dt6GhobqBoqWlRePGjVNLS4vS6bTGjRtHQAwAAMYsAmAAAAAAwCY57rjj9Ktf/WpAzTRNSX1TX+FwWKlUSvl8Xs3NzUomk/rKV76idDq9zmO1t7frjDPO0AsvvKBMJqMf/ehHmjp1aEI7AuARYOEC6Q+/lea9IfV0SaWiVLTXWhvdt/a51ylvfG20z6d6n6mw3yejb9e0HLfvFGLXceQ6/aujJRmhsPy77a66Aw6R/HXD+5xnvyD3xeel9nZJ/W+9mKa0+54y9vuPQbmE67qaP3++DjrooEFdmw5sqc7OznWmjteeNF66dKneeuutanA7VOHvpty3EhBXguHaoLipqan6v3EAAACjDQEwAAAAAGCjnnzySc2cOVOO41Rrteue6+rq1NDQoMbGRo0fP17ZbFbHH3+8jj322PU+Xltbmz760Y/qpZdeUnNzsx577LHqiuahQAA8AnW2S396Snrxn1JbW985wnbtlLArR44MRyq5rtpLRa0uFLW8p6j3uru1qlhUb8lWWa5CpqVInU/1liXLMNT3Lkf/hHD/+mnHcfoyWMuUtcNE1R18lMz1/MOEQeG6cp/4Vd9ZyeXSv+tG5T/6llsbJ31UyuW3+nIrVqyQYRg6+eSTOQ8Vo8J1112nX//619WvvQyAN6aurm6d9dK1ZxDXTjADAACMNATAAAAAAID16unp0cSJE9Xa2lqtVYJfqe/N8fr6eqVSqeqb45lMRrfeeusGp6aWL1+uU089VXPnztX48eP12GOPafz48UP6PAiARwHHkf7vH9Lf/iC9957U290XnpZtubaznrXRZa0qFLWqWNTirh4t718bXXYd+cy+tdFhy1Sw///WfVujnb4pY9uRI1eu4/ZNCccTqtvnAPmnD84ErfvHp6TZ/yc5dt/E79rvuhiSXKPvc6BOxgVXbN31XFfz5s3T4YcfrmnTpm3VYwFDbf78+Zo1a9aAf1A0UgPg97tvOBzWRRddpPPPP3+LHwcAAGCoEAADAAAAANZx/fXX62tf+9qAWu3UbygUUjweVz6f1/jx45VMJnXNNddo0qRJG3zMZcuW6ZRTTtEbb7yhiRMn6rHHHlM+v/UTkO+HAHiUWviO9IcnpDde718b3Tch3Lc2uj8Mdl0ZknrsstoKJa0qFLWsp1fvdfeqrVRS0e4Lmer9fRPCYZ/VP3/rqm8o2JFr962Ldpz+tdGBgPy77C7/gYfKCAY3q2V39v/Jfeb3khzJMGT0pb2SjH8P/1behen/hxSSZOy8u3TIEVv8Ui1btkyBQEAnnXSSgpvZMzCc/v73v+tvf/vbgJpt2+rs7BxQK5fL6u7uHlArlUrq6ekZUCsUCurt7V2nVjmLuKKnp0elUmlAraurS+VyeYueR+Xt1CuuuEIf//jHt+gxAAAAhhIBMAAAAACg6rXXXtP06dNVLBartUrwaxiGAoGAIpGIstmsmpub1dTUpD333FOXXHLJRh930aJF+n//7//pnXfe0eTJk/XYY4+psbFxqJ+OJALgMaOzU/rLU9Lz/5A6VtesjXZq1kbbMhxDZblqKxS1uljUit6iFnf1rY3uKduyXVchy1K9z6eIzyfL6J8QVn+o7PRNCzv95xLLNGTlmlV32ExZTc0b7q+rU85jP+gLqx1Hhtt3X6n/AkZ/+luZAHYl9Q/KGzLkGqaM08+RYpu/VrZyFvCHPvQh7bTTTpv/2gKQ1HeGce10siR1dHSsMy3c3t4u13WVz+dZBQ0AAEYkAmAAAAAAgCRpr7320vPPP1/9unbds8/nq657zuVyamlpUSKR0C233PK+546+++67OuWUU/Tuu+9q11131aOPPjqsb5gTAI9hs1+U/vBbqXWx1NPTtza6VO4La6pro/vOAe4s900Jry4U1drTq9buHnWW+tZGW4apep+liM9ad22068p1XTmuI9d2+7Y3R6LyzdhHgX32r07yuk89Ife1lyXHlQxTcp0Bnw31r5w2JDmqHAXcV6i5bQTrpfMu3uyXorW1VQ0NDTrxxBNVV1e3lS8sAAAAgNGMABgAAAAAtnEPPfSQLrjgggETTrVTv6FQSLFYTI2NjWppaVE2m9U555yj/fff/30fu3Le49KlSzV9+nT913/9l+Lx+BA+m3URAG9DFr4j/fG30htzpe4uqVjqmxIuO3L7Rnv78lm56rVtrSkU+9dGF/Red8/AtdE+S/V+n8KWVc1nXdfpOzu4Pxy2K2uj/X6FAoG+H7LtvlC3OvWrf3/dv7L636uga1ZD9/9s9T8/sI+034Gb/NRt29aCBQt09NFHa/LkyVv1MgIAAAAY3QiAAQAAAGAbtWzZMk2ePFnt7e3VWm3w6/f7FY1GlU6n1dLSonw+r5aWFn31q1/dpMd/5ZVXdOqpp2rlypXaZ5999MgjjygajQ7V09kgAuBtWGen9KffSy89L61cKZWKUrksle2+tdGu5MiR4Uhl11FbsaS2Yt9Zwgu7urWqUFRXqayy6ypo9U0IR3w++Uyj/759a6MNQ7Is/4BL9037VlZA96+UNcz+EHitt2L6U2HDMPomjCsnFZumjLM+Lr3PlH3FokWLlM1mddxxx8nn823VSwcAAABg9CIABgAAAIBt0GmnnaYf/ehHA2qm2XcgqWVZCoVCSiaTamxs1Hbbbad4PK4bbrhB+Xx+kx7/5Zdf1nXXXaf58+dr11131fe///33XRU9VAiAMcDsF6Vna9ZG2yWpZMt1HfUdAOz0D+u66rZtreotbnxttN9S2PL9e9p3U5j9q6H735Hpy39r729IpmTIlAxXbjQu48wL3vdhS6WSFi5cqGOPPVY77LDDZrwoAAAAAMYSAmAAAAAA2IY89dRTOvLII+U4TrVWmfg1TVOBQEANDQ1Kp9MaN26ccrmcDj74YJ155pmbfI1//vOfOvPMM9Xe3q7TTjtNX/va1xSorMf1AAEwNmrxu9IzT0hvvCb1dEvFolS2JduuWRvdt7q55DjVtdEreota2NWltmJZPXZZjitF/L6+D5+v78+VpP5Z4L5rGapOAWsDb8cYtf9ReYxKOPzBg6U99tzo03nnnXc0btw4ffjDH67+ow4AAAAA2xYCYAAAAADYBpTLZU2ePFkLFiyo1irBryT5/X7V19crlUopn89r3LhxSqfTuuWWW+T3+zfwqOv629/+prPOOkudnZ064ogj9MADD6iurm6wn85mIQDGZin2Sn96WvrnX/vXRhf6zvWtTglXAuG+z22FvgnhlcWiFnX2rY3uLJdlu64Clk8NPkv1fr/q/P0rmV1XhuuuvQR6gAGzxGbfGulKBuyalowLLpc28OeyWCxq8eLFOv744zV+/PhBeEEAAAAAjDYEwAAAAAAwxn3+85/XjTfeOKBWO/VbWfeczWbV0tKiTCajCy+8UDNmzNis6zzzzDM677zzVCgUdNxxx+nuu+/erPB4qBAAY6vNflF69gnpvcVSb69UKkt2Sa7ryCnZcly7em5vr21rdaHvHOElPT1a0l1QR7mkXseRJSnir1PUbynk8+n9lkYP+L5hVoaC+74TT0qnn7fe+7399tuaOHGiZs6cWf1HHgAAAAC2HQTAAAAAADBGvf7669p9991VKBSqtUrwaxiGgsGg6uvrlclk1NzcrKamJu2888665pprNvtav//973XBBReoUCjoIx/5iO666y75fL7BfDpbjAAYg+69hdJTfWuj7ZXLZXd3S+r781Ud7TX7IuGy42pNsaTVxZKWF0ta1NmltlJJPaWyXNdV2O9TtH9ttPk+Ya0hSab57zXRhiEddLi06/QBP9fb26ulS5fqxBNPVFNT06A+dQAAAAAjHwEwAAAAAIxBBx98sP7whz9Uv65d9+zz+RQOh6vrnpubmxWPx/XVr35VqVRqs6/1q1/9SpdeeqlKpZLOOOMM3XzzzSPq7FECYAyl4jdvlvvCP/q+cN2+CV1XkmHIdV2ZpiGZPhmuIddwJFfqLJe1ulDQqkJRi7p6tKK3oO6yrZLjyGeZavD5FPH7FbDW/+eoci6w0b8e2jVMGRdeIdX8o4s333xTu+yyiw4//PAhfgUAAAAAjDQEwAAAAAAwhnzve9/T+eefr9pf9WqnfkOhkOLxuDKZTPWc35NOOklHH330Fl3vv//7v3XFFVeoXC7rnHPO0de+9rURt3LWtu3qWajvvvsuATAGVfG/f6zy4/8lw++XbKfvfF+j7+heQ0ZfFiz17242/r3X2ZEM05UhQz1lW2uKRa0ulrSkp1etXb3qKJdUcByZMhTx+1Tv86ne/++10TU5swzT6ivEM9JHz5YkdXV1adWqVTrppJOUzWaH90UBAAAA4KmRsY8LAAAAALBV2tvbtcMOO2jVqlXVWm3w6/f7FYlElE6n1dTUpObmZmWzWX3jG9/Y4mndH/7wh7rmmmvkuq4uu+wyXX/99YP1dIDRo6tDriu5xaIMSY5hSo4tV0bNRK4p0y7JkCmZkutKpiTHMWQaroKmqVwoqFwwqJ3jUZUdqb1Y0ppSUct7S1rc3a3VxaKW9/bKdl0FLUsRv19Rv0+WDLm2LcM0ZaxeJvfe22QcebTqJ++k1tZWvfrqqwTAAAAAwDaGCWAAAAAAGOXOOOMM/fCHPxxQq4S6lmUpFAoplUqpsbFRzc3NSiQSuvbaazVp0qQtvub3v/99ffazn5XjOLrsssv0uc99bquew1BiAhhDqTz/DXV/7TqptyhX/ZO/jiv5TJnV8V9T/z4cuL/kuv1TweofDDYkw5QpV4bR9/OVx3NlqKvsaHWxoJXFot7r6tXynoK6ymWVXUc+01TU1zclHPL5ZViSa5jqPPNCdXR06OSTT1YymRzeFwYAAACAZ5gABgAAAIBR6tlnn9Xhhx8u27artcrEr2maCgQCikajymQyam5uVj6f1957762LLrpoq677rW99S1/+8pclSddee62uuuqqrXo8YDQz882yewqSXZYMyXUNGYbkFvv+XFZWohsy5Bqu5PQFvDXZr1zDkGH233YtyXAk9QXEtmHIkKGQ6SoUCqg5GNBusQYVXFeri0W19Za0pLdXS3t6tbxQUKmnR4akiL9OkQfvUadt6PXddtMHP/hBL14eAAAAAB4gAAYAAACAUaZcLmuXXXbRG2+8Ua1Vgl9J8vl8ikQiSqVSyufzam5uViwW0+23365QKLRV137ggQf05S9/WYZh6MYbb9T555+/VY8HjHZmfb2c7XZQed5cybZl+PyS68iQZBqGXMeRTKv/NOC+M38rtyuTv0b/gb6uaciQ3TcdLFMy3b610Ubfz/SdJSxZpiW/pIzlUzbq1+RoWI4htRXLaiuWtKy3oEWdXVrW0SnbMDT3i5/RhM98Ttn9D5QRCHr3YgEAAAAYFgTAAAAAADCKfOlLX9INN9wwoFY79RsMBpVIJJTNZtXS0qJUKqXzzz9f++2331Zf+5ZbbtE3v/lN7bHHHpo1a5bOPffcrX5MYCwI7H+wCq/NkRxXsgsyDUmGof45Xql/Sr8yC+z2B8CmYap/bLhvarj/u44qE8OS4UqV07vM/qTYrT6S5LiuTNOQ47ryyVDcdtQgWxPrQyo1RNTj86knntCqlSvUaLL+HAAAANgWEAADAAAAwCgwf/587brrrioUCtVaJfg1DEN1dXWKRCLKZrPK5/PK5/MaN26cvvrVr271tV3X1Re/+EXdf//98vl8OvfcczVr1qytflxgrIgc+xGt+Z/HZS94WzKcvjXQkmT0Tfz2Jbl9f5aM/jFeV5Lhuv2hryHXdGW4hlynbzLYlSun7MhwXTmV1dL90a8jV4ZpSv46+Zpyiux7kJL/76OyYqkNN1l75jAAAACAMc1wK/+MFAAAAAAwIh1yyCF69tlnB9RM05TUt+45HA4rkUgon8+rqalJiURCN954o7LZ7FZf23Vdfe5zn9N3v/td+Xw+3XXXXTr55JO3+nGHk23bGj9+vCTp3XfflWUxBYnB55ZKeuucWbIXL/x3za2seTbVt+NZktk36tt3HrAkw5br9K9wNw0Zvjr5kkkFd5mm2Ic+rPq99/fqKQEAAAAYpQiAAQAAAGCE+sEPfqCzzz5btb+21a57DgQCisViymazam5uVjab1WGHHabTTz99UK5v27auvvpq/dd//Zf8fr++853v6Oijjx6Uxx5OBMAYLnZ7m5b/5/e0+n8el9vWJqc/9zVNU0Y0quD4HdRwyBFqOOxD8qfSXrcLAAAAYIwiAAYAAACAEaazs1M77LCDVqxYUa3Vrnv2+/2KRCJKpVJqampSPp9XKpXS7bffLp9vcE76sW1bn/jEJ/TjH/9YdXV1evDBB3XkkUcOymMPNwJgAAAAAMC2hDOAAQAAAGAEOfvss/XII48MqFXWPVuWpXA4rFgspsbGRrW0tCiVSunSSy/V9OnTB62HYrGoiy66SP/zP/+j+vp6ff/739dBBx00aI8PAAAAAACGDgEwAAAAAIwAzz33nA488EDZtl2t1U79BoNBRaNRZTIZNTU1KZfLaZdddtE111wzqH0Ui0VdcMEFeuKJJ9TQ0KBHH31Ue+2116BeAwAAAAAADB0CYAAAAADwkOM42nXXXfXaa69Va5XQV5J8Pl913XMul1Nzc7Oi0ahuvfVWNTQ0DGovPT09Ouuss/SHP/xBsVhMjz32mPbYY49BvQYAAAAAABhaBMAAAAAA4JEbb7xRn//85wfUKuGvaZoKBoOKx+NqbGxUc3OzUqmUZs2apZkzZw56L93d3TrzzDP1pz/9SalUSj/96U+1yy67DPp1AAAAAADA0CIABgAAAIBhtnjxYk2ePFk9PT3VWu2657q6OkUiEaXTaTU1NSmfzyuXy+nmm2+ungc8mNra2nTaaafpn//8p7LZrH76059qp512GvTrAAAAAACAoUcADAAAAADD6LDDDtPTTz89oFYJdS3LUjgcVjKZrE79xuNxfeYzn9GkSZOGpJ9Vq1bpqquu0j//+U81Nzfr8ccf14QJE4bkWgAAAAAAYOgRAAMAAADAMHj00Ud1+umny3Xdaq123XMgEFAsFlM6nVZzc7Oy2awOOOAAXXDBBUPW0/Lly3XSSSeptbVVBxxwgL75zW9q3LhxQ3Y9L9W+7gAAAAAAjGUEwAAAAAAwhLq6ujRx4kQtXbq0WqsEv5JUV1en+vp6JZNJ5fN5NTc3KxaL6fbbb1coFBqyvpYtW6aTTjpJc+fO1cSJE3XvvfeqqalpyK4HAAAAAACGBwEwAAAAAAyR888/Xw899NCAWu3UbygUUjKZVDabVVNTk9LptC644ALtu+++Q9rXokWL9JGPfERvv/22pkyZop/97GfK5XJDek0AAAAAADA8CIABAAAAYJC9+OKL2muvvVQul6u1SvBrGIaCwaDq6+uVyWTU3NysfD6v8ePH68tf/vKQ9/buu+/qxBNP1Lvvvqtdd91VP/3pT5VKpYb8ugAAAAAAYHgQAAMAAADAIHEcR7vuuqtee+21aq123bPP51M4HFYqlVIul1M+n1c8HtdXv/pVZbPZIe9v/vz5OvHEE9Xa2qrdd99dP/nJT5RMJof8uiPBjBkzvG4BAAAAAIBhQQAMAAAAAIPg5ptv1mc/+1m5rlut1U79hkIhxWIxZTIZtbS0KJ1O68gjj9Rpp502LP29/vrr+shHPqKlS5dq33331aOPPqpoNDos1x4JXnjhBa9bAAAAAABgWBAAAwAAAMBWaG1t1ZQpU9TZ2Vmt1Qa/fr9fkUhE6XRa+Xxe+XxeqVRKd9xxhyzLGpYeX375Zc2aNUsrV67Ufvvtp//6r/9SJBIZlmsDAAAAAIDhRQAMAAAAAFvoiCOO0O9///sBNdM0JUmWZSkUCimZTKqxsVHNzc1KJBK6+uqrteOOOw5bjy+++KJOPvlkrV69Wocffri+//3vKxgMDtv1R4rayWwAAAAAAMYyAmAAAAAA2Ez/+7//q2OPPVaO41RrlYlf0zQVCAQUjUaVyWTU1NSkxsZG7bbbbrr66quHtc/nnntOp556qjo7O3XUUUfpe9/7ngKBwLD2AAAAAAAAhhcBMAAAAABsoq6uLk2aNElLliyp1irBryT5fD5FIhElk0nl83k1NzcrGo3qtttuG/bzdv/yl7/otNNOU1dXl0444QTdd9998vv9w9oDAAAAAAAYfgTAAAAAALAJLr74Yt13330DarVTv6FQSIlEojr1m0qldOqpp+qoo44a9l6ffvppnXHGGSoUCjrllFN09913D9t5wwAAAAAAwFsEwAAAAACwES+99JL22msvlUqlaq0S/BqGUV33nEqllM/nlc/n1dTUpJtuuql6HvBweuKJJ3TBBRdo2rRp2mmnnXTbbbd50gcAAAAAAPAGATAAAAAArIfjOJo2bZpeeeWVAfVKmOrz+RQOh5VMJtXY2Fhd9/y5z31OEyZM8KJl/fSnP9Ull1wi27Y1Y8YM3XjjjdX11AAAAAAAYNtAAAwAAAAAa7njjjv0qU99Sq7rVmu1U7+hUEgNDQ1qbGxULpdTNpvVgQceqPPPP9+znn/yk5/o0ksvVblc1uWXX64vfelLnvUCAAAAAAC8QwAMAAAAAP2WLFmiyZMnq7Ozs1qrDX79fr+i0agSiYTy+byam5vV0NCgO++8U4FAwLO+H374YV199dVyHEdXXnmlvvjFL3rWCwAAAAAA8BYBMAAAAABImjlzpp544okBtcq6Z8uyFA6HlUgklM1mlcvllEqldNFFF2nvvff2ot2q7373u7r22mvluq4++9nP6pprrvG0HwAAAAAA4C0CYAAAAADbtCeeeELHHHOMHMep1tZe9xyJRJROp9Xc3KxsNqsJEybohhtu8K7pfnfeeae+9KUvyTRNffWrX9XFF1/sdUsAAAAAAMBjBMAAAAAAtkk9PT2aOHGiWltbq7Xa4Nfn86m+vl7JZFKNjY1qampSNBrVTTfdpGw262HnfSrhr2EY+vrXv66PfexjXrcEAAAAAABGAAJgAAAAANucyy+/XPfcc8+AWiX4NU1ToVBIsVhM2WxWTU1NSiaTOuGEE3TiiSd61PFAN954o2677TZZlqW77rpLp59+utctAQAAAACAEYIAGAAAAMA2Y86cOZoxY4aKxWK1Vjv1W1dXV133nM/nlc/nFY/H9c1vfrN6HrCXXNfVddddp/vuu0+WZenee+/VKaec4nVbAAAAAABgBCEABgAAADDmOY6j3XffXXPmzBlQr4S6lmVV1z1Xpn5jsZiuvfZaTZ061YuW1+E4jq688kr94Ac/UCAQ0He/+10de+yxXrcFAAAAAABGGAJgAAAAAGPaAw88oI9//ONyXbdaq133HAgEFIvFqlO/uVxOu+22mz71qU952PVAtm3rsssu06OPPqpAIKCHH35YM2fO9LotAAAAAAAwAhEAAwAAABiTli5dqsmTJ6ujo6Naq1337Pf7FYlElEwmlcvllMvl1NDQoDvvvFP19fUedj5QqVTStddeq1//+tcKh8N69NFH9R//8R9etzXq1P4DAAAAAAAAxjICYAAAAABjzrHHHqv/+Z//GVCrnfoNh8NKJBLKZrPK5/NKJBI67bTTdNRRR3nU8foVCgWdffbZeuKJJzRjxgzdeOON+uAHP+h1WwAAAAAAYAQjAAYAAAAwZjz55JOaOXOmHMep1mqnfkOhkOrr65XJZJTL5arn/d5yyy0edr1+PT09Ov300/X0008rFovp61//uvbaay+v2wIAAAAAACMcATAAAACAUa+np0cTJ05Ua2trtVYJfSXJ7/crHA4PWPcciUT0pS99Sdttt51XbW9Qd3e3Tj31VP3hD39QIpHQ448/rj322MPrtgAAAAAAwChAAAwAAABgVLvuuut00003DajVTv2Gw2HFYjFlMhnl83llMhkdeOCBOv/88z3qeOPa29t18skn6+9//7uy2ax+/vOfa5dddvG6LQAAAAAAMEoQAAMAAAAYlV577TVNnz5dxWKxWqsNfuvq6hSJRJRKpZTL5ZTP5xWNRnXPPffI7/d72PmGtbW16SMf+Yief/55NTY26he/+IV22mknr9sCAAAAAACjCAEwAAAAgFFnzz331L/+9a8BNdM0JUmWZam+vl6JRKI69RuPx3XppZeO6DN0ly9frhNOOEFz5sxRS0uLfvWrX2nChAletwUAAAAAAEYZAmAAAAAAo8ZDDz2kCy64QK7rVmuViV/TNBUMBhWNRqvBbzab1dSpU3X99dd72PX7W7ZsmY477ji9+uqr2n777fWrX/1qRJ5NDAAAAAAARj4CYAAAAAAj3rJlyzR58mS1t7dXa5XgV5L8fr+i0agSiYRyuZxyuZzq6+t18803K5vNetX2Jlm0aJGOPfZYvfnmm5oyZYp++ctfqqmpyeu2AAAAAADAKEUADAAAAGBEO/XUU/XYY48NqNVO/YbDYcXj8erUbyqV0gknnKATTjjBm4Y3w8KFC/XhD39Yb7/9tnbccUf98pe/VC6X87otAAAAAAAwihEAAwAAABiRnnrqKR111FGybbtaqwS/hmEoEAgoGo0qnU5X1z0nk0nddddd1fOAR7L58+fr2GOP1eLFi7X77rvr5z//uVKplNdtAQAAAACAUY4AGAAAAMCIUi6XNXnyZC1YsKBaq1337PP5FA6HlUwmlc1m1dTUpEgkouuuu05Tp071qOvN8/rrr+vYY49Va2urZsyYof/+7/9WIpHwui0AAAAAADAGjPx/Fg8AAABgm/H5z39efr9/veGvYRgKh8NKp9PafvvtNXXqVE2ZMkUHHnigvv/974+a8Pell17SNddco+XLl+vAAw/Ur3/9a8JfAAAAAAAwaJgABgAAAOC5uXPnavr06SoUCtVabfDr9/sViUSUSqWUy+WUz+dVX1+vO++8U5FIxMPON8+//vUvnXDCCVqzZo3OPfdcff3rX1c4HPa6LQAAAAAAMIYQAAMAAADw1D777KN//OMfA2qVM3wty1I4HFYikVA2m1Uul1MikdCZZ56pww47zIt2t9hzzz2nk046SR0dHTrqqKP0jW98Q8Fg0Ou2AAAAAADAGEMADAAAAMAT9913ny655BK5rlutVSZ+TdNUMBhUJBJRJpNRPp9XNptVPp/XN77xDQ+73jJ//vOfNWvWLHV2dmrmzJn6wQ9+oEAg4HVbAAAAAABgDCIABgAAADCsVq5cqVwup3K5XK3Vrnv2+Xyqr69XMplULpdTY2OjIpGIvva1r6mpqcnDzrfM7373O330ox9VT0+PZs2apQceeEA+H7+KDbfaf2gAAAAAAMBYxrsOAAAAAIbNKaecoh//+McDarVTv6FQSLFYTJlMRs3NzUomkzr44IN17rnnetTx1vnNb36jM888U729vTr11FN1//33y7Isr9sCAAAAAABjGAEwAAAAgCH3zDPP6IgjjpBt2wPqlfA3FAopEokolUopl8spm80qFovp7rvvlt/v96jrrfP444/r/PPPV6lU0vnnn6877rijerYxht++++7rdQsAAAAAAAwLAmAAAAAAQ6ZcLmvHHXfUm2++OaBuGIYkybIsBYNBpdNp5fN55XI5NTQ06NJLL9Vee+3lRcuD4sc//rEuvPBClctlXXHFFfrqV79afc7wxt///nevWwAAAAAAYFjwz88BAAAADIkbbrhBfr9/QPhbe9ZvMBhUIpFQS0uLJk2apAkTJmjvvffWww8/PKrD3+9973vVyd9PfvKT+trXvkb4CwAAAAAAhg0TwAAAAAAG1fz587XrrruqUCgMqFeCX8uyFA6HlUgklMvllM/nFY1Gdddddykej3vT9CB54IEHdNVVV8l1XV1//fW67rrrvG4JAAAAAABsYwiAAQAAAAyaQw45RM8+++yAWmX61TRNBQIBxWIxpdNpNTU1KZ1O6/jjj9esWbM86HZw3Xnnnbr++utlGIZuuukmXXHFFV63BAAAAAAAtkEEwAAAAAC22g9+8AOdffbZcl13QL0y9VtXV6f6+nrF43E1NTUpn8+rublZt956q0xz5J1M88ADD+iJJ55QPB5XMplUIpFQPB6vfq6txeNx3X333frCF74gwzD0jW98Q5dcconXTwFrWfu/mwAAAAAAjFWGy2/BAAAAALZQZ2endthhB61YsWJAvTL16/P5qmf9ZrNZ5XI5JZNJfe5zn9PkyZO9aHmTHHfccXrnnXc2+jO15/q6rqtyuazx48dr0qRJ1bC49iMejysWiymRSCgWiw31U0AN27bV3NwsSVq8eLEsy/K4IwAAAAAAhg4TwAAAAAC2yNlnn61HHnlkQK123XNdXZ0aGhqUSqWUz+fV2Nio/fbbT5deeqkX7W6yt956SwsWLJA0MORdm+u61e8bhiG/36/W1la1trZWf2ZD97csSxMnTtSnP/1pzZgxY/CaBwAAAAAA2zwCYAAAAACb5S9/+Yv+4z/+Q7ZtD6hX1j37fD6Fw2Elk0nlcjnl8/nqmuRQKORR15vu6aefrt6uDXnXZ0u+Hw6HddZZZ+nMM89UOBze+oYBAAAAAABqEAADAAAA2CTlclnTpk3Ta6+9NqBeCTgty1IwGFQsFlMmk1Eul1M6ndbFF1+s/fbbz4uWt0htACxtfQhc4fP5dPzxx+viiy9WKpXa6j4BAAAAAADWhwAYAAAAwPv68pe/rBtuuEGu61ZrteuPA4GAwuGwUqmUmpqalM1mtf322+vmm2/2quUtsmzZMr3yyivr1LcmBHZdVwcddJCuvvpqjR8/ftB6BQAAAAAAWB8CYAAAAAAbtHjxYk2ePFk9PT0D6pWws7LuOR6Pq7GxUfl8XrFYTDfffLNyuZwXLW+Vp556akDIXWtLQuBp06bpqquu0gc+8IFB7RMAAAAAAGBDCIABAAAArNfhhx+up556akCtdt1zIBBQQ0OD0um08vm80um0Zs6cqTPOOMOLdgfF2uuf17apIfAOO+ygSy65REccccRgtwgAAAAAALBRBMAAAAAABnj00Ud1+umnb3Dds9/vVyQSUSKRUGNjY/Xjm9/8pny+0fsrRkdHh/71r39t1brnxsZGXXjhhfrIRz4i0zSHqlUAAAAAAIANGr3vzgAAAAAYVF1dXZo0aZKWLFkyoF677jkQCCgejyubzSqfzyuRSOiqq67SHnvs4UXLg+rZZ59VqVSStPnrnhsaGnTuuefq9NNPVyAQGPJeAQAAAAAANoQAGAAAAIDOP/98PfTQQwNqlYDTNE0FAgFFIhGlUinl83llMhlNnz5dn/nMZ7xod0g888wzA77elBC4rq5Oxx9/vC677DIlEomhbhEAAAAAAOB9EQADAAAA27AXX3xRe+21l8rl8oC6YRgyDEM+n0/hcFiJRELZbFZNTU2KxWK666671NDQ4FHXg69QKOivf/3rOvW1Q2DDMOS6rkzT1OGHH66rrrpKzc3Nw9kqAAAAAADARhEAAwAAANsgx3G066676rXXXhtQr4SdlmUpGAyqoaFB6XRa+Xxe6XRap556qj784Q970fKQ+utf/6qurq71fq82BHZdV/vuu68++clPascddxzOFgEAAAAAADYJATAAAACwjfn617+u6667Tq7rVmuVgNMwDAUCAdXX1yuRSCifz6uxsVFNTU26/fbbZZqmV20PqbXXP6/NdV3tuuuuuuqqq7T33nsPU1cAAAAAAACbjwAYAAAA2Ea0trZq0qRJ6u7uHlCvhL9+v1+hUEjxeFzZbFaNjY2Kx+P6whe+oMmTJ3vR8rBwHEfPPvvsBr/f1NSkSy+9VMcee+xGzwQGAAAAAAAYCQiAAQAAgG3AkUceqd/97ncDapUw0zRNBQIBNTQ0KJlMKp/PK5PJ6OCDD9bHP/5xL9odVi+++KJWr169Tj2ZTOqiiy7SrFmz5PPxq9NoVzvxDgAAAADAWMa7GAAAAMAY9rOf/UyzZs3a4Lpnn8+nSCSiZDKpbDarXC6nRCKhu+++W6FQyKu2h9VTTz014OtwOKyzzjpL55xzjurr6z3qCgAAAAAAYMsQAAMAAABjUFdXlyZNmqQlS5YMqFfCX5/Pp2AwqFgspnQ6rXw+r2QyqYsvvlj777+/Fy175umnn5bU95qcdNJJuuiii5ROpz3uCgAAAAAAYMsQAAMAAABjzMUXX6z77rtvQK126jcYDCocDiudTiuXyymbzWqHHXbQ17/+dS/a9dTcuXO1aNEi7bvvvrr22ms1adIkr1sCAAAAAADYKgTAAAAAwBjx0ksvac8991S5XB5QNwyjuu45HA4rFoupsbFR+XxeDQ0NuvXWW5XNZj3q2lsrVqzQD3/4Q02bNs3rVgAAAAAAAAaF4dYeBgYAAABg1HEcR9OmTdMrr7wyoF6Z+rUsS8FgUA0NDUqlUsrn80qn05o5c6bOOOMML1oGhpVt22pqapIkvffee7Isy+OOAAAAAAAYOkwAAwAAAKPY7bffrquvvlq1/66zdt1zIBBQOBxWPB5XU1OTstms0um07rnnHvl8/DoAAAAAAAAw1vCODwAAADAKtba2asqUKers7BxQr6x7tixLoVBI8XhcmUxGjY2Nisfjuvbaa1l3DAAAAAAAMIYRAAMAAACjzMyZM/XEE08MqFWmfk3TVCAQUDQaVTqdVi6XUzqd1h577KFPf/rTXrQLAAAAAACAYUQADAAAAIwSTzzxhI455hg5jjOgXpn69fl8qq+vVyKRUGNjo7LZrGKxmO655x5Fo1GPugYAAAAAAMBwIgAGAAAARrienh5NnDhRra2tA+qVqd/KuudYLKZUKqVcLqdUKqWPfvSjOuaYY7xoGQAAAAAAAB4hAAYAAABGsMsvv1z33HPPgFol+DUMQ4FAoDr1m8vllMvl1NLSoltvvVWmaXrRMgAAAAAAADxEAAwAAACMQHPmzNGMGTNULBYH1Cvhr8/nUzgcVjweVzabVWNjo+LxuL70pS9pwoQJXrQMAAAAAACAEYAAGAAAABhBHMfR7rvvrjlz5gyo1657DgQCikajSqVSyufzSqfTOuSQQ3ThhRd60TIAAAAAAABGEAJgAAAAYIT4zne+o4suukiu61Zra697DoVCSiaTymazyuVySiQSuvvuuxUKhbxqGwAAAAAAACMIATAAAADgsaVLl2ry5Mnq6OgYUK9d9xwIBBSPx5XJZJTP5xWPx3XZZZfpgx/8oBctAwAAAAAAYIQiAAYAAAA8dPTRR+s3v/nNgFol+DVNU4FAQJFIRMlkUrlcTtlsVpMnT9aNN97oRbvAqLXvvvt63QIAAAAAAMOCABgAAADwwJNPPqmjjz5atm0PqBuGIcMw5PP5FA6HlUgklM1m1djYqIaGBt1yyy3K5XIedQ2MXn/729+8bgEAAAAAgGFBAAwAAAAMo56eHk2aNEnvvffegHpl6teyLAWDQTU0NCiVSqmpqUnJZFLHH3+8TjnlFC9aBgAAAAAAwChCAAwAAAAMk+uuu0433XTTgFol+DUMQ3V1dYpEIkokEmpsbFQul1MqldK3vvUtmabpRcsAAAAAAAAYZQiAAQAAgCH22muvafr06SoWiwPqlfDX7/crFAopFospk8kol8spFovp85//vHbccUcvWgYAAAAAAMAoRQAMAAAADKG99tpLzz///IBaJfg1TVOBQEANDQ1KJpPK5XJKp9Pac889dc0113jRLgAAAAAAAEY5AmAAAABgCDz00EO64IIL5LputVa77tnn86m+vr667rmxsVENDQ269957FYlEvGobGLNq/ywCAAAAADCWEQADAAAAg2jZsmWaPHmy2tvbq7VK8CtJPp9PwWBQsVhMqVRKjY2NSiaTOuecc3TUUUd50TIAAAAAAADGEAJgAAAAYJCccMIJ+sUvfjGgZhiGDMOQaZqqq6tTOBxWOp1WNptVNptVS0uL7rjjDo86BgAAAAAAwFhDAAwAAABspaeeekpHHXWUbNuu1irBb2XdcygUUiwWU2Njo7LZrGKxmL7yla9ohx128LBzAAAAAAAAjDUEwAAAAMAW6u3t1ZQpU7Rw4cIB9dqp32AwqGg0qlQqpVwup1QqpcMOO0wf+9jHPOoaAAAAAAAAYxkBMAAAALAFPv/5z+vGG28cUKud+g0EAgqFQkokEtV1z8lkUt/61rcUCAQ86hoAAAAAAABjHQEwAAAAsBnmzp2r6dOnq1AoVGu1wa9lWQqFQorH40omk8rlcorH47riiiu07777etg5AAAAAAAAtgUEwAAAAMAm2nffffX3v/99QG3tqd/KuudsNqtMJqMdd9xRX/7ylz3qGAAAAAAAANsaAmAAAADgfTz88MM677zz5LputVYb/Pp8PoXDYSUSCWUyGTU2NqqhoUG33Xabstmsh50DAAAAAABgW0MADAAAAGzAihUrNHnyZK1Zs6Zaq4S+kmSapkKhkBoaGqpTv6lUSqeeeqpOOOEEb5oGAAAAAADANo0AGAAAAFiPM844Qz/84Q8H1Crhr2ma8vv9ikQiSiQSamxsVCaTUTqd1re+9S1ZluVR1wAAAAAAANjWEQADAAAANZ555hkdccQRsm27Wqtd92xZlkKhkBKJhFKpVHXd8xe+8AXttNNOHnYOAAAAAAAAEAADAAAAkqRyuawdd9xRb7755oB67dRvIBBQNBqtrntOp9PaZ5999KlPfcqjrgEAAAAAAICBCIABAACwzbvhhhv0pS99aUCtduo3EAhUp34zmYwaGxsVjUb1rW99S5FIxKOuAQAAAAAAgHURAAMAAGCbNW/ePE2bNk29vb3VWiX0lSTLshQIBBSPx5VOp9XY2KhEIqHzzjtPRxxxhFdtAwAAAAAAABtEAAwAAIBt0qGHHqpnnnlmQK126jcYDCoSiSiZTFbXPW+//fa69dZbPeoYAAAAAAAAeH8EwAAAANim/OAHP9DZZ58t13Wrtdrg1+/3KxwOKxaLKZvNKpvNKhKJ6NZbb1VTU5OHnQPYGrV/5gEAAAAAGMsIgAEAALBN6Ozs1A477KAVK1YMqJumWf0cCoUUjUaVSqXU2NioVCqlI444Queff74XLQMAAAAAAACbjQAYAAAAY97ZZ5+tRx55ZECtMvFrmqbq6uoUDoeVTCaVyWSUzWaVTCb17W9/W36/36OuAQAAAAAAgM1HAAwAAIAx649//KMOPfRQ2bZdrVWCX0ny+XzVdc/JZFK5XE4NDQ361Kc+pb322surtgEAAAAAAIAtRgAMAACAMadcLmu33XbT3LlzB9Rrp34DgYCi0ajS6bQymYzS6bR22203ff7zn/eoawAAAAAAAGDrEQADAABgTPnKV76iL37xi3Jdt1qrBL+GYcjv9yscDisejyubzSqbzSoSieiOO+5QNpv1sHMAAAAAAABg6xEAAwAAYExYvHixpkyZou7u7mqtdt2zZVkKBoNKJBJKJBLVc35POeUUnXjiiV61DQAAAAAAAAwqAmAAAACMekcccYR+//vfD6jVTv0GAgFFIhElk8nquudsNqt7771XlmV51DUAAAAAAAAw+AiAAQAAMGo9+uijOv300ze47tnn8ykcDisWiymTySiTyaihoUE33HCDpk6d6mHnAAAAAAAAwNAgAAYAAMCo09XVpYkTJ2rp0qUD6pXgt7LuORqNKplMVtc9f/CDH9QnP/lJj7oGAAAAAAAAhh4BMAAAAEaVc889Vw8//PCA2trrnsPhsOLxuDKZjBobGxWNRvXtb39b9fX13jQNAAAAAAAADBMCYAAAAIwKzz33nA488EDZtl2t1Qa/lmVV1z0nk0k1NjYqFovpkksu0UEHHeRh5wAAAAAAAMDwIQAGAADAiOY4jnbbbTe9+uqrA+qV4Nc0TQUCAUUiESWTyepZv9ttt51uu+02j7oGAAAAAAAAvEEADAAAgBHr61//uq677jq5rlut1U79+v3+6rrndDqtbDarSCSiO+64Q7lczsPOAQAAAAAAAG8QAAMAAGDEWbx4saZMmaLu7u5qrTb4NU1TwWBQDQ0N1XXPiURCM2fO1Lnnnuth5wBGqj333NPrFgAAAAAAGBYEwAAAABhRjjzySP3ud78bUKsNfuvq6lRfX69EIqFsNqtMJqNEIqH7779fPh//7y2A9Xv++ee9bgEAAAAAgGHBO2QAAAAYEX72s59p1qxZG1z37PP5quueU6mUMpmMotGoPv3pT2vGjBkedg4AAAAAAACMHATAAAAA8FRXV5cmT56s1tbWAXXTNKufg8GgIpGIUqmUstmsUqmUpk+fruuvv96LlgEAAAAAAIARiwAYAAAAnrn44ot13333DajVTv0GAoHq1G82m1U6nVZ9fb3uueceJZNJj7oGAAAAAAAARi4CYAAAAAy7l156SXvuuafK5XK1Vgl9Jcnn8ykUCikajVanfuPxuD760Y/qhBNO8KhrAAAAAAAAYOQjAAYAAMCwcRxH06ZN0yuvvDKgXgl/TdNUIBBQJBJRMpmsrnvO5XK6++67q2uhAQAAAAAAAKwfATAAAACGxe23366rr75arutWa7Xrnv1+v0KhkGKxWHXdcyQS0Ve+8hVNmTLFw84BjAW1f/cAAAAAADCWEQADAABgSLW2tmrq1Knq6OgYUK9M85qmuc6652QyqYMOOkiXXXaZFy0DAAAAAAAAoxYBMAAAAIbMhz70If32t78dUKtd91xXV6dwOKxEIqFMJqN0Oq2Ghgbdf//9CofDHnUNAAAAAAAAjF4EwAAAABh0TzzxhI455hg5jlOt1a57tixL4XBYsVhMyWRSjY2Namho0KWXXqqDDjrIw84BAAAAAACA0Y0AGAAAAIOmp6dHEydOVGtr64B67dRvIBBQQ0ODEomE0um00um0tttuO91+++0edQ0AAAAAAACMHQTAAAAAGBSXX3657rnnngG12qnfuro6hUIhxeNxZTIZZbNZhcNh3Xnnncrlch51DQAAAAAAAIwtBMAAAADYKnPmzNGMGTNULBartUroK0mWZVWD38rUbyKR0DHHHKNzzjnHo64BAAAAAACAsYkAGAAAAFvEcRztvvvumjNnzoB67dRvIBBQJBJRIpFQJpNROp1WMpnU/fffL5+P/1cUAAAAAAAAGGy86wYAAIDN9p3vfEcXXXSRXNet1mqDX5/Pp3A4rFgspnQ6rUwmo0gkos985jPaY489POwcAAAAAAAAGNsIgAEAALDJlixZoilTpqijo2NA3TRNGYYh0zQVDAYVjUaVTCaVyWSUTCa1xx576LrrrvOoawAAAAAAAGDbQQAMAACATXL00UfrN7/5zYBa7dRvMBhUKBSqnvObTqdVX1+v73znO4pGox51DQAAAAAAAGxbCIABAACwUU8++aSOPvpo2bZdrdUGv5ZlKRwOq6GhQclkUtlsVg0NDTr77LP14Q9/2MPOAQAAAAAAgG0PATAAAADWq6enR5MmTdJ77703oF4Jfk3TVCAQUCQSqa57TqVSyuVyuueee2SapkedAwAAAAAAANsuAmAAAACs49prr9U3vvGNAbXaqV+/369wOKx4PK50Oq1MJqNwOKwbb7xRU6ZM8ahrAAAAAAAAAATAAAAAqHrllVe0xx57qFgsVmu1wa9pmgoGgwPWPcfjcR122GG6+OKLPewcAAAAAAAAgEQADAAAAEmO42jGjBl68cUXB9Rrg1+/369IJKJEIqFMJqN0Oq1oNKr7779f4XDYm8YBAAAAAAAADEAADAAAsI176KGHdMEFF8h13WqtdurX5/MpHA4rFosplUopnU4rEonoyiuv1IEHHuhh5wCw6Wr/jgMAAAAAYCwjAAYAANhGLVu2TJMnT1Z7e/uA+trrniORiFKplDKZjJLJpCZMmKBbbrnFo64BAAAAAAAAbAwBMAAAwCjiuq7+8z//U6FQSJMmTdL06dO36HGOP/54/fKXvxxQq536DQQCCgaD1XXPmUxGwWBQ3/zmN5XL5QbhmQAAAAAAAAAYCgTAAAAAo8Qf//hHzZo1Sz09PSqXy/L5fDIMQ2effbauueYajRs37n0f43e/+51mzpwp27artdrg17IshUIhNTQ0KJlMKpPJKJFI6MMf/rDOOuusoXx6AAAAAAAAAAaB4XIQEgAAwIj3yCOP6JOf/KQKhYLK5bIkqVgsqq6uTuVyWY2Njbr55pt1+umnr/f+vb29mjJlihYuXDigXrvuORAIKBKJVKd+k8mkksmkHnjgAVmWNeTPEQCGim3bymazkvrW3/N3GgAAAABgLCMABgAAGOH++te/6vjjj1exWFSxWJRhGCoWi/L5fNUw2DRNua6rSy+9VHfeeeeA+3/+85/XjTfeOKBWO/Xr9/sVCoUUi8WUTqeVyWRUX1+vL33pS9p5552H62kCwJAhAAYAAAAAbEsIgAEAAEawZcuWaffdd1dvb696enokSeVyWZZlybbtaohr27b8fr8Mw9Duu++uv/3tb5o7d66mT5+uQqFQfbza4NcwjGrwW5n6jcfj2mOPPXT99dd79ZQBYNARAAMAAAAAtiUEwAAAACNUuVzWdtttp66uLhWLRUl9a59N05Rt27IsS47jSFJ1GthxHEUiEUUiEbW2tg54vLXXPYdCISWTSaVSKaXTadXX1+uBBx5QJBIZ9ucKAEOJABgAAAAAsC3xed0AAAAA1m/SpEnq7e1VsViUbdtyHKc67VsJfE3TlGVZKpfLcl1XPp9PHR0d6ujoqD5O7cSvz+erTv1Wgt9oNKrzzjtPRx99tIfPFgAAAAAAAMBgIAAGAAAYgXbaaSd1dHSop6dHtm3Ltu3q9yzLUqlUqk6wlUolmaYpx3FUKpUGPE5l4rey7jkajSoejyudTiuVSqm5uVl33XWXTNMc1ucHAAAAAAAAYGgQAAMAAIwwhx56qJYtW6aenh45jqNyuSzp35O85XJZPp9PjuOocppH5WfW5rpudd1zPB5XKpVSJpNRMBjUN77xDU2YMGHYnhcAAAAAAACAoUcADAAAMIJceumlmjNnjnp7e6sTvZWQd+31z5UzgCvfXx/DMBSNRtXY2KhMJqNYLKbDDjtMl1xyyXA9JQAAAAAAAADDiAAYAABghHjooYf0s5/9TF1dXbJtu3qur9Q3yes4jnw+n0qlknw+n0zT3ODkb63Vq1dr3333VSQS0YMPPqhAIDDUTwUARpyWlhavWwAAAAAAYFgY7sZGRgAAADAsXn75ZR155JHq7OxUuVxWuVyW4ziSNGACWFL1vN61v19hGIZc162ujPb7/XrwwQd1+umnD9fTAYARxbZtZbNZSdKyZcuqZ6gDAAAAADAWmV43AAAAsK3r6urShz70IXV1dalUKq03/K3ctixLruvKdV35/f71Pl4l/DVNsxoG33XXXcPyXAAAAAAAAAB4iwAYAADAY1OnTlVnZ6eKxaJs25Zt25LWneyVpHK5LNM0ZVmWSqWSLMuqTgZXVCZ/KyGybdtas2bNkD8PAAAAAAAAAN4jAAYAAPDQxIkT1d7ePiD8rUztbojruiqVStVJX+nfoW/lozIt7DiODMPQu+++q2effXaYnhUAAAAAAAAAr/i8bgAAAGBbNW3aNK1cuVKFQuF9J39rVUJiqW8iuLIOujIdbBhGdUK48vP/v737d63yfOM4fj05TzRUaaRQh5aCSEEcHOssOBQ6tOBcCqWTu938A5z1H2gKHRyCe91d+hc4CIJ2MiFNFJPmx7k7JVj7LcVvznMe/fh6TTnkJM91xvDOdd+ttVpfXx/2AwEAAAAAo7MBDAAwgi+//LKePHlSOzs7tb+/fxR/38TCwsLRFvBhCO77vqbTae3t7VXXdbW4uFiLi4u1sLBQv/zyywCfBAAAAAB4m9gABgCYsxs3btRvv/1W29vbtbe3d3RX75torR0d8/yq3d3dmkwmtb+/X33fH4Xg6XRa58+fn9VHAAAAAADeUjaAAQDmaHV1tVZWVurly5e1v7//f8XfQ9PptFprR/f8TiaTmkwm1Vo72g7u+/7oe7///vsMPwkAAAAA8DayAQwAMCePHz+u69ev14sXL/525+9xTKfTo9h7eOfv4etX4/Di4mJ99913x34ewLvqv+5XBwAAgBRd81cwAMDgdnZ26ty5c7W5uVl7e3szib+v6rquuq77W+B49fUHH3xQ6+vrdfLkyZk+F+BdcHBwUB9//HFVVT179uwfx+cDAABAEhvAAABz8Pnnn9fW1lbt7u4e69jnf/P6//S9/vratWt14sSJmT8XAAAAAHi7uAMYAGBg586dq42Njfrzzz8HPYL08Njnw2e01moymdTNmzfr559/rq7rBns2AAAAAPB2sAEMADCgS5cu1draWu3s7Ayy+fu/dF1Xy8vLdefOnfr222/n8kwAAAAA4O1gAxgAYCBfffVVPX78uLa3twePv0tLS3Xr1q06ODio6XRaGxsb4i8AAAAAvIdsAAMADODGjRv14MGDevny5SDx98SJE/X999/X7du33e0LAAAAABwRgAEAZuzevXv1008/1fPnz2cWf/u+r2+++aZWVlbq1KlTM/mdAAAAAEAeARgAYIaePn1a169frz/++ONY8XcymdTVq1drdXW1Tp8+PcMJAQAAAIBkAjAAwIxMp9P64osvamNjow4ODt7oZxcWFurSpUv166+/1tmzZweaEAAAAABIJwADAMzIZ599Vpubm7W7u/uf7+26rj755JO6f/9+Xbx4cQ7TAQAAAADvAwEYAGAGzp49W2tra9Va+9f3fPTRR7W6ulpXrlyZ32AAAAAAwHtFAAYAOKYzZ87U1tbWP+Lv0tJS3b17t77++uuRJgMAAAAA3jcLYw8AAPAue/ToUfV9X4uLi9V1Xf3444/VWqvWWm1vb4u/AAAAAMBc2QAGADiGTz/9tJ49e1Zd1409CgAAAACAAAwAcBxLS0tjjwAAAAAAcEQABgAAIN7r97QDAABAKncAAwAAAAAAAIQQgAEAAAAAAABCCMAAAAAAAAAAIQRgAAAAAAAAgBACMAAAAAAAAEAIARgAAAAAAAAghAAMAAAAAAAAEEIABgAAAAAAAAghAAMAAAAAAACEEIABAAAAAAAAQvRjDwAAAABDW15eHnsEAAAAmAsBGAAAgHibm5tjjwAAAABz4QhoAAAAAAAAgBACMAAAAAAAAEAIARgAAAAAAAAghAAMAAAAAAAAEEIABgAAAAAAAAghAAMAAAAAAACEEIABAAAAAAAAQgjAAAAAAAAAACH6sQcAAACAobXWxh4BAAAA5sIGMAAAAAAAAEAIARgAAAAAAAAghAAMAAAAAAAAEEIABgAAAAAAAAghAAMAAAAAAACEEIABAAAAAAAAQgjAAAAAAAAAACEEYAAAAAAAAIAQAjAAAAAAAABACAEYAAAAAAAAIIQADAAAAAAAABBCAAYAAAAAAAAIIQADAAAAAAAAhBCAAQAAAAAAAEIIwAAAAAAAAAAh+rEHAAAAgKG11sYeAQAAAObCBjAAAAAAAABACAEYAAAAAAAAIIQADAAAAAAAABBCAAYAAAAAAAAIIQADAAAAAAAAhBCAAQAAAAAAAEIIwAAAAAAAAAAhBGAAAAAAAACAEP3YAwAAAMDQlpeXxx4BAAAA5kIABgAAIN7m5ubYIwAAAMBcOAIaAAAAAAAAIIQADAAAAAAAABBCAAYAAAAAAAAIIQADAAAAAAAAhBCAAQAAAAAAAEIIwAAAAAAAAAAhBGAAAAAAAACAEAIwAAAAAAAAQAgBGAAAAAAAACCEAAwAAAAAAAAQoh97AAAAABhaa23sEQAAAGAubAADAAAAAAAAhBCAAQAAAAAAAEIIwAAAAAAAAAAhBGAAAAAAAACAEAIwAAAAAAAAQAgBGAAAAAAAACCEAAwAAAAAAAAQQgAGAAAAAAAACCEAAwAAAAAAAIQQgAEAAAAAAABCCMAAAAAAAAAAIQRgAAAAAAAAgBACMAAAAAAAAEAIARgAAAAAAAAgRD/2AAAAADC01trYIwAAAMBc2AAGAAAAAAAACCEAAwAAAAAAAIQQgAEAAAAAAABCCMAAAAAAAAAAIQRgAAAAAAAAgBACMAAAAAAAAECIfuwBAAAAYGgXLlwYewQAAACYCwEYAACAeA8fPhx7BAAAAJgLR0ADAAAAAAAAhBCAAQAAAAAAAEIIwAAAAAAAAAAhBGAAAAAAAACAEAIwAAAAAAAAQAgBGAAAAAAAACCEAAwAAAAAAAAQQgAGAAAAAAAACCEAAwAAAAAAAIQQgAEAAAAAAABCCMAAAAAAAAAAIQRgAAAAAAAAgBD92AMAAADA0FprY48AAAAAc2EDGAAAAAAAACCEAAwAAAAAAAAQQgAGAAAAAAAACCEAAwAAAAAAAIQQgAEAAAAAAABCCMAAAAAAAAAAIQRgAAAAAAAAgBACMAAAAAAAAEAIARgAAAAAAAAghAAMAAAAAAAAEEIABgAAAAAAAAghAAMAAAAAAACEEIABAAAAAAAAQgjAAAAAAAAAACEEYAAAAAAAAIAQ/dgDAAAAwNBaa2OPAAAAAHNhAxgAAAAAAAAghAAMAAAAAAAAEEIABgAAAAAAAAghAAMAAAAAAACE6MceAAAAAIZ2+fLlsUcAAACAuehaa23sIQAAAGAoBwcH9eGHH1ZV1dbWVk0mk5EnAgAAgOE4AhoAAAAAAAAghAAMAAAAAAAAEEIABgAAAAAAAAghAAMAAAAAAACEEIABAAAAAAAAQgjAAAAAAAAAACEEYAAAAAAAAIAQAjAAAAAAAABACAEYAAAAAAAAIIQADAAAAAAAABBCAAYAAAAAAAAIIQADAAAAAAAAhBCAAQAAAAAAAEL0Yw8AAAAAQ2utjT0CAAAAzIUNYAAAAAAAAIAQAjAAAAAAAABACAEYAAAAAAAAIIQADAAAAAAAABBCAAYAAAAAAAAIIQADAAAAAAAAhBCAAQAAAAAAAEIIwAAAAAAAAAAhBGAAAAAAAACAEAIwAAAAAAAAQAgBGAAAAAAAACCEAAwAAAAAAAAQQgAGAAAAAAAACCEAAwAAAAAAAIQQgAEAAAAAAABC9GMPAAAAAENrrY09AgAAAMyFDWAAAAAAAACAEAIwAAAAAAAAQAhHQAMAABCt67r64Ycfjr4GAACAZF1zERIAAAAAAABABEdAAwAAAAAAAIQQgAEAAAAAAABCCMAAAAAAAAAAIQRgAAAAAAAAgBACMAAAAAAAAEAIARgAAAAAAAAghAAMAAAAAAAAEEIABgAAAAAAAAghAAMAAAAAAACEEIABAAAAAAAAQgjAAAAAAAAAACEEYAAAAAAAAIAQAjAAAAAAAABACAEYAAAAAAAAIIQADAAAAAAAABBCAAYAAAAAAAAIIQADAAAAAAAAhBCAAQAAAAAAAEIIwAAAAAAAAAAhBGAAAAAAAACAEAIwAAAAAAAAQAgBGAAAAAAAACCEAAwAAAAAAAAQQgAGAAAAAAAACCEAAwAAAAAAAIQQgAEAAAAAAABCCMAAAAAAAAAAIQRgAAAAAAAAgBACMAAAAAAAAEAIARgAAAAAAAAghAAMAAAAAAAAEEIABgAAAAAAAAghAAMAAAAAAACEEIABAAAAAAAAQgjAAAAAAAAAACEEYAAAAAAAAIAQAjAAAAAAAABACAEYAAAAAAAAIIQADAAAAAAAABBCAAYAAAAAAAAIIQADAAAAAAAAhBCAAQAAAAAAAEIIwAAAAAAAAAAhBGAAAAAAAACAEAIwAAAAAAAAQAgBGAAAAAAAACCEAAwAAAAAAAAQQgAGAAAAAAAACCEAAwAAAAAAAIQQgAEAAAAAAABCCMAAAAAAAAAAIQRgAAAAAAAAgBACMAAAAAAAAEAIARgAAAAAAAAghAAMAAAAAAAAEEIABgAAAAAAAAghAAMAAAAAAACEEIABAAAAAAAAQgjAAAAAAAAAACEEYAAAAAAAAIAQAjAAAAAAAABACAEYAAAAAAAAIIQADAAAAAAAABBCAAYAAAAAAAAIIQADAAAAAAAAhBCAAQAAAAAAAEIIwAAAAAAAAAAhBGAAAAAAAACAEAIwAAAAAAAAQAgBGAAAAAAAACCEAAwAAAAAAAAQQgAGAAAAAAAACCEAAwAAAAAAAIQQgAEAAAAAAABCCMAAAAAAAAAAIQRgAAAAAAAAgBACMAAAAAAAAEAIARgAAAAAAAAghAAMAAAAAAAAEEIABgAAAAAAAAghAAMAAAAAAACEEIABAAAAAAAAQgjAAAAAAAAAACEEYAAAAAAAAIAQAjAAAAAAAABACAEYAAAAAAAAIIQADAAAAAAAABBCAAYAAAAAAAAIIQADAAAAAAAAhBCAAQAAAAAAAEIIwAAAAAAAAAAhBGAAAAAAAACAEAIwAAAAAAAAQAgBGAAAAAAAACCEAAwAAAAAAAAQQgAGAAAAAAAACCEAAwAAAAAAAIQQgAEAAAAAAABCCMAAAAAAAAAAIQRgAAAAAAAAgBACMAAAAAAAAEAIARgAAAAAAAAghAAMAAAAAAAAEEIABgAAAAAAAAghAAMAAAAAAACEEIABAAAAAAAAQgjAAAAAAAAAACEEYAAAAAAAAIAQAjAAAAAAAABACAEYAAAAAAAAIIQADAAAAAAAABBCAAYAAAAAAAAIIQADAAAAAAAAhBCAAQAAAAAAAEIIwAAAAAAAAAAhBGAAAAAAAACAEAIwAAAAAAAAQAgBGAAAAAAAACCEAAwAAAAAAAAQQgAGAAAAAAAACCEAAwAAAAAAAIQQgAEAAAAAAABCCMAAAAAAAAAAIQRgAAAAAAAAgBACMAAAAAAAAEAIARgAAAAAAAAghAAMAAAAAAAAEEIABgAAAAAAAAghAAMAAAAAAACEEIABAAAAAAAAQgjAAAAAAAAAACEEYAAAAAAAAIAQAjAAAAAAAABACAEYAAAAAAAAIIQADAAAAAAAABBCAAYAAAAAAAAIIQADAAAAAAAAhBCAAQAAAAAAAEIIwAAAAAAAAAAhBGAAAAAAAACAEAIwAAAAAAAAQAgBGAAAAAAAACCEAAwAAAAAAAAQQgAGAAAAAAAACCEAAwAAAAAAAIQQgAEAAAAAAABCCMAAAAAAAAAAIQRgAAAAAAAAgBACMAAAAAAAAEAIARgAAAAAAAAghAAMAAAAAAAAEEIABgAAAAAAAAghAAMAAAAAAACEEIABAAAAAAAAQgjAAAAAAAAAACEEYAAAAAAAAIAQAjAAAAAAAABACAEYAAAAAAAAIIQADAAAAAAAABBCAAYAAAAAAAAIIQADAAAAAAAAhBCAAQAAAAAAAEL8Ba4O/b9WEh6AAAAAAElFTkSuQmCC;clipPath=inset(7.4% 28.33% 26.92% 31%);" parent="1" vertex="1">
          <mxGeometry x="-1560" y="-1054" width="446" height="405.72" as="geometry" />
        </mxCell>
        <mxCell id="neJJ6CxrI0hjP-hsaY2k-2" value="$$\mathbf{x}$$" style="text;html=1;strokeColor=none;fillColor=none;align=center;verticalAlign=middle;whiteSpace=wrap;rounded=0;fontSize=35;" parent="1" vertex="1">
          <mxGeometry x="-1530" y="-680" width="40" height="30" as="geometry" />
        </mxCell>
        <mxCell id="neJJ6CxrI0hjP-hsaY2k-4" value="$$\mathbf{r}_1$$" style="text;html=1;strokeColor=none;fillColor=none;align=center;verticalAlign=middle;whiteSpace=wrap;rounded=0;fontSize=35;fontColor=#CC0000;" parent="1" vertex="1">
          <mxGeometry x="-1240" y="-760" width="50" height="40" as="geometry" />
        </mxCell>
        <mxCell id="neJJ6CxrI0hjP-hsaY2k-5" value="$$\mathbf{r}_2$$" style="text;html=1;strokeColor=none;fillColor=none;align=center;verticalAlign=middle;whiteSpace=wrap;rounded=0;fontSize=35;fontColor=#0066CC;" parent="1" vertex="1">
          <mxGeometry x="-1470" y="-900" width="60" height="30" as="geometry" />
        </mxCell>
        <mxCell id="neJJ6CxrI0hjP-hsaY2k-6" value="$$\mathbf{r}_3$$" style="text;html=1;strokeColor=none;fillColor=none;align=center;verticalAlign=middle;whiteSpace=wrap;rounded=0;fontSize=35;fontColor=#006600;" parent="1" vertex="1">
          <mxGeometry x="-1530" y="-1030" width="60" height="30" as="geometry" />
        </mxCell>
        <mxCell id="neJJ6CxrI0hjP-hsaY2k-7" value="$$x$$" style="text;html=1;strokeColor=none;fillColor=none;align=center;verticalAlign=middle;whiteSpace=wrap;rounded=0;fontSize=30;" parent="1" vertex="1">
          <mxGeometry x="-1450" y="-720" width="40" height="30" as="geometry" />
        </mxCell>
        <mxCell id="neJJ6CxrI0hjP-hsaY2k-8" value="$$y$$" style="text;html=1;strokeColor=none;fillColor=none;align=center;verticalAlign=middle;whiteSpace=wrap;rounded=0;fontSize=30;" parent="1" vertex="1">
          <mxGeometry x="-1162" y="-814" width="40" height="30" as="geometry" />
        </mxCell>
        <mxCell id="neJJ6CxrI0hjP-hsaY2k-9" value="$$z$$" style="text;html=1;strokeColor=none;fillColor=none;align=center;verticalAlign=middle;whiteSpace=wrap;rounded=0;fontSize=30;" parent="1" vertex="1">
          <mxGeometry x="-1348" y="-1030" width="40" height="30" as="geometry" />
        </mxCell>
        <mxCell id="M4lIAJfr1fO9MeeTwGcs-3" value="" style="endArrow=none;html=1;rounded=0;strokeColor=#FF0000;entryX=0.401;entryY=0.695;entryDx=0;entryDy=0;entryPerimeter=0;strokeWidth=3;" edge="1" parent="1" target="neJJ6CxrI0hjP-hsaY2k-1">
          <mxGeometry width="50" height="50" relative="1" as="geometry">
            <mxPoint x="-1381" y="-815" as="sourcePoint" />
            <mxPoint x="-1381" y="-778" as="targetPoint" />
          </mxGeometry>
        </mxCell>
        <mxCell id="M4lIAJfr1fO9MeeTwGcs-4" value="" style="endArrow=none;html=1;rounded=0;strokeColor=#FF0000;strokeWidth=3;" edge="1" parent="1">
          <mxGeometry width="50" height="50" relative="1" as="geometry">
            <mxPoint x="-1382" y="-814" as="sourcePoint" />
            <mxPoint x="-1352.19" y="-832" as="targetPoint" />
          </mxGeometry>
        </mxCell>
      </root>
    </mxGraphModel>
  </diagram>
</mxfile>
